<?xml version="1.0" encoding="UTF-8" standalone="no"?><svg xmlns="http://www.w3.org/2000/svg" xmlns:xlink="http://www.w3.org/1999/xlink" contentScriptType="application/ecmascript" contentStyleType="text/css" height="1526px" preserveAspectRatio="none" style="width:3135px;height:1526px;" version="1.1" viewBox="0 0 3135 1526" width="3135px" zoomAndPan="magnify"><defs><filter height="300%" id="f1f86jgh5rz3ni" width="300%" x="-1" y="-1"><feGaussianBlur result="blurOut" stdDeviation="2.0"/><feColorMatrix in="blurOut" result="blurOut2" type="matrix" values="0 0 0 0 0 0 0 0 0 0 0 0 0 0 0 0 0 0 .4 0"/><feOffset dx="4.0" dy="4.0" in="blurOut2" result="blurOut3"/><feBlend in="SourceGraphic" in2="blurOut3" mode="normal"/></filter></defs><g><text fill="#000000" font-family="sans-serif" font-size="18" lengthAdjust="spacingAndGlyphs" textLength="699" x="1218.5" y="26.708">Calibration2 Reservoir Case - Sequence (Case Implementation + Orchestrator)</text><rect fill="#FFFFFF" filter="url(#f1f86jgh5rz3ni)" height="90.2031" style="stroke: #000000; stroke-width: 2.0;" width="533" x="1483" y="487.8438"/><rect fill="#FFFFFF" height="43.9375" style="stroke: none; stroke-width: 1.0;" width="533" x="1483" y="534.1094"/><rect fill="#FFFFFF" filter="url(#f1f86jgh5rz3ni)" height="88.3984" style="stroke: #000000; stroke-width: 2.0;" width="880" x="2006" y="912.5078"/><line style="stroke: #A80036; stroke-width: 1.0; stroke-dasharray: 5.0,5.0;" x1="27" x2="27" y1="121.25" y2="1438.7656"/><line style="stroke: #A80036; stroke-width: 1.0; stroke-dasharray: 5.0,5.0;" x1="200" x2="200" y1="121.25" y2="1438.7656"/><line style="stroke: #A80036; stroke-width: 1.0; stroke-dasharray: 5.0,5.0;" x1="638" x2="638" y1="121.25" y2="1438.7656"/><line style="stroke: #A80036; stroke-width: 1.0; stroke-dasharray: 5.0,5.0;" x1="1043.5" x2="1043.5" y1="121.25" y2="1438.7656"/><line style="stroke: #A80036; stroke-width: 1.0; stroke-dasharray: 5.0,5.0;" x1="1203.5" x2="1203.5" y1="121.25" y2="1438.7656"/><line style="stroke: #A80036; stroke-width: 1.0; stroke-dasharray: 5.0,5.0;" x1="1434" x2="1434" y1="121.25" y2="1438.7656"/><line style="stroke: #A80036; stroke-width: 1.0; stroke-dasharray: 5.0,5.0;" x1="1562" x2="1562" y1="121.25" y2="1438.7656"/><line style="stroke: #A80036; stroke-width: 1.0; stroke-dasharray: 5.0,5.0;" x1="1701" x2="1701" y1="121.25" y2="1438.7656"/><line style="stroke: #A80036; stroke-width: 1.0; stroke-dasharray: 5.0,5.0;" x1="1888" x2="1888" y1="121.25" y2="1438.7656"/><line style="stroke: #A80036; stroke-width: 1.0; stroke-dasharray: 5.0,5.0;" x1="2085" x2="2085" y1="121.25" y2="1438.7656"/><line style="stroke: #A80036; stroke-width: 1.0; stroke-dasharray: 5.0,5.0;" x1="2443.5" x2="2443.5" y1="121.25" y2="1438.7656"/><line style="stroke: #A80036; stroke-width: 1.0; stroke-dasharray: 5.0,5.0;" x1="2740" x2="2740" y1="121.25" y2="1438.7656"/><line style="stroke: #A80036; stroke-width: 1.0; stroke-dasharray: 5.0,5.0;" x1="2957" x2="2957" y1="121.25" y2="1438.7656"/><line style="stroke: #A80036; stroke-width: 1.0; stroke-dasharray: 5.0,5.0;" x1="3083" x2="3083" y1="121.25" y2="1438.7656"/><text fill="#000000" font-family="sans-serif" font-size="14" lengthAdjust="spacingAndGlyphs" textLength="32" x="8" y="117.9482">User</text><ellipse cx="27" cy="47.9531" fill="#FEFECE" filter="url(#f1f86jgh5rz3ni)" rx="8" ry="8" style="stroke: #A80036; stroke-width: 2.0;"/><path d="M27,55.9531 L27,82.9531 M14,63.9531 L40,63.9531 M27,82.9531 L14,97.9531 M27,82.9531 L40,97.9531 " fill="none" filter="url(#f1f86jgh5rz3ni)" style="stroke: #A80036; stroke-width: 2.0;"/><text fill="#000000" font-family="sans-serif" font-size="14" lengthAdjust="spacingAndGlyphs" textLength="32" x="8" y="1450.7607">User</text><ellipse cx="27" cy="1464.0625" fill="#FEFECE" filter="url(#f1f86jgh5rz3ni)" rx="8" ry="8" style="stroke: #A80036; stroke-width: 2.0;"/><path d="M27,1472.0625 L27,1499.0625 M14,1480.0625 L40,1480.0625 M27,1499.0625 L14,1514.0625 M27,1499.0625 L40,1514.0625 " fill="none" filter="url(#f1f86jgh5rz3ni)" style="stroke: #A80036; stroke-width: 2.0;"/><rect fill="#FEFECE" filter="url(#f1f86jgh5rz3ni)" height="30.2969" style="stroke: #A80036; stroke-width: 1.5;" width="134" x="131" y="85.9531"/><text fill="#000000" font-family="sans-serif" font-size="14" lengthAdjust="spacingAndGlyphs" textLength="120" x="138" y="105.9482">run_calibration.py</text><rect fill="#FEFECE" filter="url(#f1f86jgh5rz3ni)" height="30.2969" style="stroke: #A80036; stroke-width: 1.5;" width="134" x="131" y="1437.7656"/><text fill="#000000" font-family="sans-serif" font-size="14" lengthAdjust="spacingAndGlyphs" textLength="120" x="138" y="1457.7607">run_calibration.py</text><rect fill="#FEFECE" filter="url(#f1f86jgh5rz3ni)" height="30.2969" style="stroke: #A80036; stroke-width: 1.5;" width="174" x="549" y="85.9531"/><text fill="#000000" font-family="sans-serif" font-size="14" lengthAdjust="spacingAndGlyphs" textLength="160" x="556" y="105.9482">core.case_orchestrator</text><rect fill="#FEFECE" filter="url(#f1f86jgh5rz3ni)" height="30.2969" style="stroke: #A80036; stroke-width: 1.5;" width="174" x="549" y="1437.7656"/><text fill="#000000" font-family="sans-serif" font-size="14" lengthAdjust="spacingAndGlyphs" textLength="160" x="556" y="1457.7607">core.case_orchestrator</text><rect fill="#FEFECE" filter="url(#f1f86jgh5rz3ni)" height="30.2969" style="stroke: #A80036; stroke-width: 1.5;" width="111" x="986.5" y="85.9531"/><text fill="#000000" font-family="sans-serif" font-size="14" lengthAdjust="spacingAndGlyphs" textLength="97" x="993.5" y="105.9482">engine_config</text><rect fill="#FEFECE" filter="url(#f1f86jgh5rz3ni)" height="30.2969" style="stroke: #A80036; stroke-width: 1.5;" width="111" x="986.5" y="1437.7656"/><text fill="#000000" font-family="sans-serif" font-size="14" lengthAdjust="spacingAndGlyphs" textLength="97" x="993.5" y="1457.7607">engine_config</text><rect fill="#FEFECE" filter="url(#f1f86jgh5rz3ni)" height="30.2969" style="stroke: #A80036; stroke-width: 1.5;" width="181" x="1111.5" y="85.9531"/><text fill="#000000" font-family="sans-serif" font-size="14" lengthAdjust="spacingAndGlyphs" textLength="167" x="1118.5" y="105.9482">case_implementation.py</text><rect fill="#FEFECE" filter="url(#f1f86jgh5rz3ni)" height="30.2969" style="stroke: #A80036; stroke-width: 1.5;" width="181" x="1111.5" y="1437.7656"/><text fill="#000000" font-family="sans-serif" font-size="14" lengthAdjust="spacingAndGlyphs" textLength="167" x="1118.5" y="1457.7607">case_implementation.py</text><rect fill="#FEFECE" filter="url(#f1f86jgh5rz3ni)" height="30.2969" style="stroke: #A80036; stroke-width: 1.5;" width="94" x="1385" y="85.9531"/><text fill="#000000" font-family="sans-serif" font-size="14" lengthAdjust="spacingAndGlyphs" textLength="80" x="1392" y="105.9482">workflow.py</text><rect fill="#FEFECE" filter="url(#f1f86jgh5rz3ni)" height="30.2969" style="stroke: #A80036; stroke-width: 1.5;" width="94" x="1385" y="1437.7656"/><text fill="#000000" font-family="sans-serif" font-size="14" lengthAdjust="spacingAndGlyphs" textLength="80" x="1392" y="1457.7607">workflow.py</text><rect fill="#FEFECE" filter="url(#f1f86jgh5rz3ni)" height="30.2969" style="stroke: #A80036; stroke-width: 1.5;" width="134" x="1493" y="85.9531"/><text fill="#000000" font-family="sans-serif" font-size="14" lengthAdjust="spacingAndGlyphs" textLength="120" x="1500" y="105.9482">synthetic_data.py</text><rect fill="#FEFECE" filter="url(#f1f86jgh5rz3ni)" height="30.2969" style="stroke: #A80036; stroke-width: 1.5;" width="134" x="1493" y="1437.7656"/><text fill="#000000" font-family="sans-serif" font-size="14" lengthAdjust="spacingAndGlyphs" textLength="120" x="1500" y="1457.7607">synthetic_data.py</text><rect fill="#FEFECE" filter="url(#f1f86jgh5rz3ni)" height="30.2969" style="stroke: #A80036; stroke-width: 1.5;" width="116" x="1641" y="85.9531"/><text fill="#000000" font-family="sans-serif" font-size="14" lengthAdjust="spacingAndGlyphs" textLength="102" x="1648" y="105.9482">case_config.py</text><rect fill="#FEFECE" filter="url(#f1f86jgh5rz3ni)" height="30.2969" style="stroke: #A80036; stroke-width: 1.5;" width="116" x="1641" y="1437.7656"/><text fill="#000000" font-family="sans-serif" font-size="14" lengthAdjust="spacingAndGlyphs" textLength="102" x="1648" y="1457.7607">case_config.py</text><rect fill="#FEFECE" filter="url(#f1f86jgh5rz3ni)" height="46.5938" style="stroke: #A80036; stroke-width: 1.5;" width="231" x="1771" y="69.6563"/><text fill="#000000" font-family="sans-serif" font-size="14" lengthAdjust="spacingAndGlyphs" textLength="127" x="1823" y="89.6514">MODEL_REGISTRY</text><text fill="#000000" font-family="sans-serif" font-size="14" lengthAdjust="spacingAndGlyphs" textLength="217" x="1778" y="105.9482">(one_reservoir / two_reservoirs)</text><rect fill="#FEFECE" filter="url(#f1f86jgh5rz3ni)" height="46.5938" style="stroke: #A80036; stroke-width: 1.5;" width="231" x="1771" y="1437.7656"/><text fill="#000000" font-family="sans-serif" font-size="14" lengthAdjust="spacingAndGlyphs" textLength="127" x="1823" y="1457.7607">MODEL_REGISTRY</text><text fill="#000000" font-family="sans-serif" font-size="14" lengthAdjust="spacingAndGlyphs" textLength="217" x="1778" y="1474.0576">(one_reservoir / two_reservoirs)</text><rect fill="#FEFECE" filter="url(#f1f86jgh5rz3ni)" height="30.2969" style="stroke: #A80036; stroke-width: 1.5;" width="134" x="2016" y="85.9531"/><text fill="#000000" font-family="sans-serif" font-size="14" lengthAdjust="spacingAndGlyphs" textLength="120" x="2023" y="105.9482">CalibrationEngine</text><rect fill="#FEFECE" filter="url(#f1f86jgh5rz3ni)" height="30.2969" style="stroke: #A80036; stroke-width: 1.5;" width="134" x="2016" y="1437.7656"/><text fill="#000000" font-family="sans-serif" font-size="14" lengthAdjust="spacingAndGlyphs" textLength="120" x="2023" y="1457.7607">CalibrationEngine</text><rect fill="#FEFECE" filter="url(#f1f86jgh5rz3ni)" height="30.2969" style="stroke: #A80036; stroke-width: 1.5;" width="139" x="2372.5" y="85.9531"/><text fill="#000000" font-family="sans-serif" font-size="14" lengthAdjust="spacingAndGlyphs" textLength="125" x="2379.5" y="105.9482">CalibrationMethod</text><rect fill="#FEFECE" filter="url(#f1f86jgh5rz3ni)" height="30.2969" style="stroke: #A80036; stroke-width: 1.5;" width="139" x="2372.5" y="1437.7656"/><text fill="#000000" font-family="sans-serif" font-size="14" lengthAdjust="spacingAndGlyphs" textLength="125" x="2379.5" y="1457.7607">CalibrationMethod</text><rect fill="#FEFECE" filter="url(#f1f86jgh5rz3ni)" height="46.5938" style="stroke: #A80036; stroke-width: 1.5;" width="268" x="2604" y="69.6563"/><text fill="#000000" font-family="sans-serif" font-size="14" lengthAdjust="spacingAndGlyphs" textLength="119" x="2678.5" y="89.6514">Selected method</text><text fill="#000000" font-family="sans-serif" font-size="14" lengthAdjust="spacingAndGlyphs" textLength="254" x="2611" y="105.9482">(simplex, gp_mapping, da_mh_gp, ...)</text><rect fill="#FEFECE" filter="url(#f1f86jgh5rz3ni)" height="46.5938" style="stroke: #A80036; stroke-width: 1.5;" width="268" x="2604" y="1437.7656"/><text fill="#000000" font-family="sans-serif" font-size="14" lengthAdjust="spacingAndGlyphs" textLength="119" x="2678.5" y="1457.7607">Selected method</text><text fill="#000000" font-family="sans-serif" font-size="14" lengthAdjust="spacingAndGlyphs" textLength="254" x="2611" y="1474.0576">(simplex, gp_mapping, da_mh_gp, ...)</text><rect fill="#FEFECE" filter="url(#f1f86jgh5rz3ni)" height="30.2969" style="stroke: #A80036; stroke-width: 1.5;" width="138" x="2886" y="85.9531"/><text fill="#000000" font-family="sans-serif" font-size="14" lengthAdjust="spacingAndGlyphs" textLength="124" x="2893" y="105.9482">CalibrationResults</text><rect fill="#FEFECE" filter="url(#f1f86jgh5rz3ni)" height="30.2969" style="stroke: #A80036; stroke-width: 1.5;" width="138" x="2886" y="1437.7656"/><text fill="#000000" font-family="sans-serif" font-size="14" lengthAdjust="spacingAndGlyphs" textLength="124" x="2893" y="1457.7607">CalibrationResults</text><rect fill="#FEFECE" filter="url(#f1f86jgh5rz3ni)" height="30.2969" style="stroke: #A80036; stroke-width: 1.5;" width="86" x="3038" y="85.9531"/><text fill="#000000" font-family="sans-serif" font-size="14" lengthAdjust="spacingAndGlyphs" textLength="72" x="3045" y="105.9482">plotting.py</text><rect fill="#FEFECE" filter="url(#f1f86jgh5rz3ni)" height="30.2969" style="stroke: #A80036; stroke-width: 1.5;" width="86" x="3038" y="1437.7656"/><text fill="#000000" font-family="sans-serif" font-size="14" lengthAdjust="spacingAndGlyphs" textLength="72" x="3045" y="1457.7607">plotting.py</text><polygon fill="#A80036" points="188,148.3828,198,152.3828,188,156.3828,192,152.3828" style="stroke: #A80036; stroke-width: 1.0;"/><line style="stroke: #A80036; stroke-width: 1.0;" x1="27" x2="194" y1="152.3828" y2="152.3828"/><text fill="#000000" font-family="sans-serif" font-size="13" lengthAdjust="spacingAndGlyphs" textLength="60" x="34" y="147.3169">run script</text><polygon fill="#A80036" points="626,177.5156,636,181.5156,626,185.5156,630,181.5156" style="stroke: #A80036; stroke-width: 1.0;"/><line style="stroke: #A80036; stroke-width: 1.0;" x1="200" x2="632" y1="181.5156" y2="181.5156"/><text fill="#000000" font-family="sans-serif" font-size="13" lengthAdjust="spacingAndGlyphs" textLength="414" x="207" y="176.4497">run_calibration_case_from_toml(config, CASE_IMPLEMENTATION)</text><polygon fill="#A80036" points="1032,206.6484,1042,210.6484,1032,214.6484,1036,210.6484" style="stroke: #A80036; stroke-width: 1.0;"/><line style="stroke: #A80036; stroke-width: 1.0;" x1="638" x2="1038" y1="210.6484" y2="210.6484"/><text fill="#000000" font-family="sans-serif" font-size="13" lengthAdjust="spacingAndGlyphs" textLength="382" x="645" y="205.5825">load_calibration_toml(config_calibration_two_reservoir.toml)</text><polygon fill="#A80036" points="649,235.7813,639,239.7813,649,243.7813,645,239.7813" style="stroke: #A80036; stroke-width: 1.0;"/><line style="stroke: #A80036; stroke-width: 1.0; stroke-dasharray: 2.0,2.0;" x1="643" x2="1043" y1="239.7813" y2="239.7813"/><text fill="#000000" font-family="sans-serif" font-size="13" lengthAdjust="spacingAndGlyphs" textLength="145" x="655" y="234.7153">validated configuration</text><polygon fill="#A80036" points="1192,264.9141,1202,268.9141,1192,272.9141,1196,268.9141" style="stroke: #A80036; stroke-width: 1.0;"/><line style="stroke: #A80036; stroke-width: 1.0;" x1="638" x2="1198" y1="268.9141" y2="268.9141"/><text fill="#000000" font-family="sans-serif" font-size="13" lengthAdjust="spacingAndGlyphs" textLength="272" x="645" y="263.8481">validate_case_config(chronicle_section, ...)</text><polygon fill="#A80036" points="1689,294.0469,1699,298.0469,1689,302.0469,1693,298.0469" style="stroke: #A80036; stroke-width: 1.0;"/><line style="stroke: #A80036; stroke-width: 1.0;" x1="1204" x2="1695" y1="298.0469" y2="298.0469"/><text fill="#000000" font-family="sans-serif" font-size="13" lengthAdjust="spacingAndGlyphs" textLength="244" x="1211" y="292.981">validate_reservoir_chronicle_config(...)</text><polygon fill="#A80036" points="1215,323.1797,1205,327.1797,1215,331.1797,1211,327.1797" style="stroke: #A80036; stroke-width: 1.0;"/><line style="stroke: #A80036; stroke-width: 1.0; stroke-dasharray: 2.0,2.0;" x1="1209" x2="1700" y1="327.1797" y2="327.1797"/><text fill="#000000" font-family="sans-serif" font-size="13" lengthAdjust="spacingAndGlyphs" textLength="174" x="1221" y="322.1138">normalized chronicle config</text><polygon fill="#A80036" points="649,352.3125,639,356.3125,649,360.3125,645,356.3125" style="stroke: #A80036; stroke-width: 1.0;"/><line style="stroke: #A80036; stroke-width: 1.0; stroke-dasharray: 2.0,2.0;" x1="643" x2="1203" y1="356.3125" y2="356.3125"/><text fill="#000000" font-family="sans-serif" font-size="13" lengthAdjust="spacingAndGlyphs" textLength="75" x="655" y="351.2466">case_config</text><polygon fill="#A80036" points="1192,381.4453,1202,385.4453,1192,389.4453,1196,385.4453" style="stroke: #A80036; stroke-width: 1.0;"/><line style="stroke: #A80036; stroke-width: 1.0;" x1="638" x2="1198" y1="385.4453" y2="385.4453"/><text fill="#000000" font-family="sans-serif" font-size="13" lengthAdjust="spacingAndGlyphs" textLength="299" x="645" y="380.3794">build_case(case_config, calibration_section, ...)</text><polygon fill="#A80036" points="1550,410.5781,1560,414.5781,1550,418.5781,1554,414.5781" style="stroke: #A80036; stroke-width: 1.0;"/><line style="stroke: #A80036; stroke-width: 1.0;" x1="1204" x2="1556" y1="414.5781" y2="414.5781"/><text fill="#000000" font-family="sans-serif" font-size="13" lengthAdjust="spacingAndGlyphs" textLength="219" x="1211" y="409.5122">build_noisy_reservoir_chronicle(...)</text><polygon fill="#A80036" points="1876.5,439.7109,1886.5,443.7109,1876.5,447.7109,1880.5,443.7109" style="stroke: #A80036; stroke-width: 1.0;"/><line style="stroke: #A80036; stroke-width: 1.0;" x1="1562" x2="1882.5" y1="443.7109" y2="443.7109"/><text fill="#000000" font-family="sans-serif" font-size="13" lengthAdjust="spacingAndGlyphs" textLength="204" x="1569" y="438.645">parse_chronicle_parameters(...)</text><polygon fill="#A80036" points="1573,468.8438,1563,472.8438,1573,476.8438,1569,472.8438" style="stroke: #A80036; stroke-width: 1.0;"/><line style="stroke: #A80036; stroke-width: 1.0; stroke-dasharray: 2.0,2.0;" x1="1567" x2="1887.5" y1="472.8438" y2="472.8438"/><text fill="#000000" font-family="sans-serif" font-size="13" lengthAdjust="spacingAndGlyphs" textLength="174" x="1579" y="467.7778">true_params + initial_state</text><path d="M1483,487.8438 L1547,487.8438 L1547,494.8438 L1537,504.8438 L1483,504.8438 L1483,487.8438 " fill="#EEEEEE" style="stroke: #000000; stroke-width: 1.0;"/><rect fill="none" height="90.2031" style="stroke: #000000; stroke-width: 2.0;" width="533" x="1483" y="487.8438"/><text fill="#000000" font-family="sans-serif" font-size="13" font-weight="bold" lengthAdjust="spacingAndGlyphs" textLength="19" x="1498" y="500.9106">alt</text><text fill="#000000" font-family="sans-serif" font-size="11" font-weight="bold" lengthAdjust="spacingAndGlyphs" textLength="97" x="1562" y="500.0542">[one_reservoir]</text><polygon fill="#A80036" points="1876.5,522.1094,1886.5,526.1094,1876.5,530.1094,1880.5,526.1094" style="stroke: #A80036; stroke-width: 1.0;"/><line style="stroke: #A80036; stroke-width: 1.0;" x1="1562" x2="1882.5" y1="526.1094" y2="526.1094"/><text fill="#000000" font-family="sans-serif" font-size="13" lengthAdjust="spacingAndGlyphs" textLength="220" x="1569" y="521.0435">simulate_outflow(..., forcing = Qin)</text><line style="stroke: #000000; stroke-width: 1.0; stroke-dasharray: 2.0,2.0;" x1="1483" x2="2016" y1="535.1094" y2="535.1094"/><text fill="#000000" font-family="sans-serif" font-size="11" font-weight="bold" lengthAdjust="spacingAndGlyphs" textLength="104" x="1488" y="545.3198">[two_reservoirs]</text><polygon fill="#A80036" points="1876.5,566.0469,1886.5,570.0469,1876.5,574.0469,1880.5,570.0469" style="stroke: #A80036; stroke-width: 1.0;"/><line style="stroke: #A80036; stroke-width: 1.0;" x1="1562" x2="1882.5" y1="570.0469" y2="570.0469"/><text fill="#000000" font-family="sans-serif" font-size="13" lengthAdjust="spacingAndGlyphs" textLength="207" x="1569" y="564.981">simulate_outflow(..., forcing = P)</text><polygon fill="#A80036" points="1215,602.1797,1205,606.1797,1215,610.1797,1211,606.1797" style="stroke: #A80036; stroke-width: 1.0;"/><line style="stroke: #A80036; stroke-width: 1.0; stroke-dasharray: 2.0,2.0;" x1="1209" x2="1561" y1="606.1797" y2="606.1797"/><text fill="#000000" font-family="sans-serif" font-size="13" lengthAdjust="spacingAndGlyphs" textLength="303" x="1221" y="601.1138">chronicle (forcing, true flow, noisy observations)</text><polygon fill="#A80036" points="1422,631.3125,1432,635.3125,1422,639.3125,1426,635.3125" style="stroke: #A80036; stroke-width: 1.0;"/><line style="stroke: #A80036; stroke-width: 1.0;" x1="1204" x2="1428" y1="635.3125" y2="635.3125"/><text fill="#000000" font-family="sans-serif" font-size="13" lengthAdjust="spacingAndGlyphs" textLength="188" x="1211" y="630.2466">make_reservoir_simulator(...)</text><polygon fill="#A80036" points="1422,660.4453,1432,664.4453,1422,668.4453,1426,664.4453" style="stroke: #A80036; stroke-width: 1.0;"/><line style="stroke: #A80036; stroke-width: 1.0;" x1="1204" x2="1428" y1="664.4453" y2="664.4453"/><text fill="#000000" font-family="sans-serif" font-size="13" lengthAdjust="spacingAndGlyphs" textLength="206" x="1211" y="659.3794">get_model_parameter_order(...)</text><polygon fill="#A80036" points="1215,689.5781,1205,693.5781,1215,697.5781,1211,693.5781" style="stroke: #A80036; stroke-width: 1.0;"/><line style="stroke: #A80036; stroke-width: 1.0; stroke-dasharray: 2.0,2.0;" x1="1209" x2="1433" y1="693.5781" y2="693.5781"/><text fill="#000000" font-family="sans-serif" font-size="13" lengthAdjust="spacingAndGlyphs" textLength="188" x="1221" y="688.5122">simulator + parameter_order</text><polygon fill="#A80036" points="649,718.7109,639,722.7109,649,726.7109,645,722.7109" style="stroke: #A80036; stroke-width: 1.0;"/><line style="stroke: #A80036; stroke-width: 1.0; stroke-dasharray: 2.0,2.0;" x1="643" x2="1203" y1="722.7109" y2="722.7109"/><text fill="#000000" font-family="sans-serif" font-size="13" lengthAdjust="spacingAndGlyphs" textLength="150" x="655" y="717.645">CalibrationCaseContext</text><polygon fill="#A80036" points="1032,747.8438,1042,751.8438,1032,755.8438,1036,751.8438" style="stroke: #A80036; stroke-width: 1.0;"/><line style="stroke: #A80036; stroke-width: 1.0;" x1="638" x2="1038" y1="751.8438" y2="751.8438"/><text fill="#000000" font-family="sans-serif" font-size="13" lengthAdjust="spacingAndGlyphs" textLength="342" x="645" y="746.7778">resolve_calibration_settings(config, parameter_order)</text><polygon fill="#A80036" points="649,776.9766,639,780.9766,649,784.9766,645,780.9766" style="stroke: #A80036; stroke-width: 1.0;"/><line style="stroke: #A80036; stroke-width: 1.0; stroke-dasharray: 2.0,2.0;" x1="643" x2="1043" y1="780.9766" y2="780.9766"/><text fill="#000000" font-family="sans-serif" font-size="13" lengthAdjust="spacingAndGlyphs" textLength="375" x="655" y="775.9106">objective_metric, method, parameter_set, method_kwargs</text><polygon fill="#A80036" points="2073,806.1094,2083,810.1094,2073,814.1094,2077,810.1094" style="stroke: #A80036; stroke-width: 1.0;"/><line style="stroke: #A80036; stroke-width: 1.0;" x1="638" x2="2079" y1="810.1094" y2="810.1094"/><text fill="#000000" font-family="sans-serif" font-size="13" lengthAdjust="spacingAndGlyphs" text-decoration="underline" textLength="19" x="645" y="805.0435">init</text><text fill="#000000" font-family="sans-serif" font-size="13" lengthAdjust="spacingAndGlyphs" textLength="353" x="664" y="805.0435">(observed, simulator, parameter_set, objective_metric)</text><polygon fill="#A80036" points="2073,835.2422,2083,839.2422,2073,843.2422,2077,839.2422" style="stroke: #A80036; stroke-width: 1.0;"/><line style="stroke: #A80036; stroke-width: 1.0;" x1="638" x2="2079" y1="839.2422" y2="839.2422"/><text fill="#000000" font-family="sans-serif" font-size="13" lengthAdjust="spacingAndGlyphs" textLength="238" x="645" y="834.1763">calibrate(method, **method_kwargs)</text><polygon fill="#A80036" points="2432,864.375,2442,868.375,2432,872.375,2436,868.375" style="stroke: #A80036; stroke-width: 1.0;"/><line style="stroke: #A80036; stroke-width: 1.0;" x1="2085" x2="2438" y1="868.375" y2="868.375"/><text fill="#000000" font-family="sans-serif" font-size="13" lengthAdjust="spacingAndGlyphs" textLength="335" x="2092" y="863.3091">calibrate(objective_cost, bounds, method, **kwargs)</text><polygon fill="#A80036" points="2728,893.5078,2738,897.5078,2728,901.5078,2732,897.5078" style="stroke: #A80036; stroke-width: 1.0;"/><line style="stroke: #A80036; stroke-width: 1.0;" x1="2444" x2="2734" y1="897.5078" y2="897.5078"/><text fill="#000000" font-family="sans-serif" font-size="13" lengthAdjust="spacingAndGlyphs" textLength="272" x="2451" y="892.4419">method(objective_cost, bounds, **kwargs)</text><path d="M2006,912.5078 L2083,912.5078 L2083,919.5078 L2073,929.5078 L2006,929.5078 L2006,912.5078 " fill="#EEEEEE" style="stroke: #000000; stroke-width: 1.0;"/><rect fill="none" height="88.3984" style="stroke: #000000; stroke-width: 2.0;" width="880" x="2006" y="912.5078"/><text fill="#000000" font-family="sans-serif" font-size="13" font-weight="bold" lengthAdjust="spacingAndGlyphs" textLength="32" x="2021" y="925.5747">loop</text><text fill="#000000" font-family="sans-serif" font-size="11" font-weight="bold" lengthAdjust="spacingAndGlyphs" textLength="154" x="2098" y="924.7183">[full-model evaluations]</text><polygon fill="#A80036" points="2096,946.7734,2086,950.7734,2096,954.7734,2092,950.7734" style="stroke: #A80036; stroke-width: 1.0;"/><line style="stroke: #A80036; stroke-width: 1.0;" x1="2090" x2="2739" y1="950.7734" y2="950.7734"/><text fill="#000000" font-family="sans-serif" font-size="13" lengthAdjust="spacingAndGlyphs" textLength="108" x="2102" y="945.7075">objective_cost(x)</text><line style="stroke: #A80036; stroke-width: 1.0;" x1="2085" x2="2127" y1="979.9063" y2="979.9063"/><line style="stroke: #A80036; stroke-width: 1.0;" x1="2127" x2="2127" y1="979.9063" y2="992.9063"/><line style="stroke: #A80036; stroke-width: 1.0;" x1="2086" x2="2127" y1="992.9063" y2="992.9063"/><polygon fill="#A80036" points="2096,988.9063,2086,992.9063,2096,996.9063,2092,992.9063" style="stroke: #A80036; stroke-width: 1.0;"/><text fill="#000000" font-family="sans-serif" font-size="13" lengthAdjust="spacingAndGlyphs" textLength="274" x="2092" y="974.8403">cost(x) -&gt; simulate(x) -&gt; value_to_cost(...)</text><polygon fill="#A80036" points="2455,1025.0391,2445,1029.0391,2455,1033.0391,2451,1029.0391" style="stroke: #A80036; stroke-width: 1.0;"/><line style="stroke: #A80036; stroke-width: 1.0; stroke-dasharray: 2.0,2.0;" x1="2449" x2="2739" y1="1029.0391" y2="1029.0391"/><text fill="#000000" font-family="sans-serif" font-size="13" lengthAdjust="spacingAndGlyphs" textLength="133" x="2461" y="1023.9731">method output (dict)</text><polygon fill="#A80036" points="2096,1054.1719,2086,1058.1719,2096,1062.1719,2092,1058.1719" style="stroke: #A80036; stroke-width: 1.0;"/><line style="stroke: #A80036; stroke-width: 1.0; stroke-dasharray: 2.0,2.0;" x1="2090" x2="2443" y1="1058.1719" y2="1058.1719"/><text fill="#000000" font-family="sans-serif" font-size="13" lengthAdjust="spacingAndGlyphs" textLength="62" x="2102" y="1053.106">raw result</text><polygon fill="#A80036" points="2945,1083.3047,2955,1087.3047,2945,1091.3047,2949,1087.3047" style="stroke: #A80036; stroke-width: 1.0;"/><line style="stroke: #A80036; stroke-width: 1.0;" x1="2085" x2="2951" y1="1087.3047" y2="1087.3047"/><text fill="#000000" font-family="sans-serif" font-size="13" lengthAdjust="spacingAndGlyphs" textLength="158" x="2092" y="1082.2388">from_method_output(...)</text><polygon fill="#A80036" points="2945,1112.4375,2955,1116.4375,2945,1120.4375,2949,1116.4375" style="stroke: #A80036; stroke-width: 1.0;"/><line style="stroke: #A80036; stroke-width: 1.0;" x1="2085" x2="2951" y1="1116.4375" y2="1116.4375"/><text fill="#000000" font-family="sans-serif" font-size="13" lengthAdjust="spacingAndGlyphs" textLength="300" x="2092" y="1111.3716">attach_context(vector_to_params, score_best)</text><polygon fill="#A80036" points="2096,1141.5703,2086,1145.5703,2096,1149.5703,2092,1145.5703" style="stroke: #A80036; stroke-width: 1.0;"/><line style="stroke: #A80036; stroke-width: 1.0; stroke-dasharray: 2.0,2.0;" x1="2090" x2="2956" y1="1145.5703" y2="1145.5703"/><text fill="#000000" font-family="sans-serif" font-size="13" lengthAdjust="spacingAndGlyphs" textLength="106" x="2102" y="1140.5044">structured result</text><polygon fill="#A80036" points="649,1170.7031,639,1174.7031,649,1178.7031,645,1174.7031" style="stroke: #A80036; stroke-width: 1.0;"/><line style="stroke: #A80036; stroke-width: 1.0; stroke-dasharray: 2.0,2.0;" x1="643" x2="2084" y1="1174.7031" y2="1174.7031"/><text fill="#000000" font-family="sans-serif" font-size="13" lengthAdjust="spacingAndGlyphs" textLength="114" x="655" y="1169.6372">CalibrationResults</text><polygon fill="#A80036" points="1192,1199.8359,1202,1203.8359,1192,1207.8359,1196,1203.8359" style="stroke: #A80036; stroke-width: 1.0;"/><line style="stroke: #A80036; stroke-width: 1.0;" x1="638" x2="1198" y1="1203.8359" y2="1203.8359"/><text fill="#000000" font-family="sans-serif" font-size="13" lengthAdjust="spacingAndGlyphs" textLength="145" x="645" y="1198.77">build_case_outputs(...)</text><polygon fill="#A80036" points="1422,1228.9688,1432,1232.9688,1422,1236.9688,1426,1232.9688" style="stroke: #A80036; stroke-width: 1.0;"/><line style="stroke: #A80036; stroke-width: 1.0;" x1="1204" x2="1428" y1="1232.9688" y2="1232.9688"/><text fill="#000000" font-family="sans-serif" font-size="13" lengthAdjust="spacingAndGlyphs" textLength="132" x="1211" y="1227.9028">evaluate_metrics(...)</text><polygon fill="#A80036" points="649,1258.1016,639,1262.1016,649,1266.1016,645,1262.1016" style="stroke: #A80036; stroke-width: 1.0;"/><line style="stroke: #A80036; stroke-width: 1.0; stroke-dasharray: 2.0,2.0;" x1="643" x2="1203" y1="1262.1016" y2="1262.1016"/><text fill="#000000" font-family="sans-serif" font-size="13" lengthAdjust="spacingAndGlyphs" textLength="179" x="655" y="1257.0356">metrics + params + q_calib</text><polygon fill="#A80036" points="211,1287.2344,201,1291.2344,211,1295.2344,207,1291.2344" style="stroke: #A80036; stroke-width: 1.0;"/><line style="stroke: #A80036; stroke-width: 1.0; stroke-dasharray: 2.0,2.0;" x1="205" x2="637" y1="1291.2344" y2="1291.2344"/><text fill="#000000" font-family="sans-serif" font-size="13" lengthAdjust="spacingAndGlyphs" textLength="120" x="217" y="1286.1685">calibration payload</text><line style="stroke: #A80036; stroke-width: 1.0;" x1="200" x2="242" y1="1320.3672" y2="1320.3672"/><line style="stroke: #A80036; stroke-width: 1.0;" x1="242" x2="242" y1="1320.3672" y2="1333.3672"/><line style="stroke: #A80036; stroke-width: 1.0;" x1="201" x2="242" y1="1333.3672" y2="1333.3672"/><polygon fill="#A80036" points="211,1329.3672,201,1333.3672,211,1337.3672,207,1333.3672" style="stroke: #A80036; stroke-width: 1.0;"/><text fill="#000000" font-family="sans-serif" font-size="13" lengthAdjust="spacingAndGlyphs" textLength="151" x="207" y="1315.3013">print terminal summary</text><polygon fill="#A80036" points="3071,1358.5,3081,1362.5,3071,1366.5,3075,1362.5" style="stroke: #A80036; stroke-width: 1.0;"/><line style="stroke: #A80036; stroke-width: 1.0;" x1="200" x2="3077" y1="1362.5" y2="1362.5"/><text fill="#000000" font-family="sans-serif" font-size="13" lengthAdjust="spacingAndGlyphs" textLength="433" x="207" y="1357.4341">plot_calibration_result(chronicle, calibration, output_png, show_plot)</text><polygon fill="#A80036" points="211,1387.6328,201,1391.6328,211,1395.6328,207,1391.6328" style="stroke: #A80036; stroke-width: 1.0;"/><line style="stroke: #A80036; stroke-width: 1.0; stroke-dasharray: 2.0,2.0;" x1="205" x2="3082" y1="1391.6328" y2="1391.6328"/><text fill="#000000" font-family="sans-serif" font-size="13" lengthAdjust="spacingAndGlyphs" textLength="142" x="217" y="1386.5669">figure saved/displayed</text><polygon fill="#A80036" points="38,1416.7656,28,1420.7656,38,1424.7656,34,1420.7656" style="stroke: #A80036; stroke-width: 1.0;"/><line style="stroke: #A80036; stroke-width: 1.0; stroke-dasharray: 2.0,2.0;" x1="32" x2="199" y1="1420.7656" y2="1420.7656"/><text fill="#000000" font-family="sans-serif" font-size="13" lengthAdjust="spacingAndGlyphs" textLength="149" x="44" y="1415.6997">summary + figure path</text><!--MD5=[a8a3058439ec0e1005ce1d4619b886a6]
@startuml
title Calibration2 Reservoir Case - Sequence (Case Implementation + Orchestrator)

actor User
participant "run_calibration.py" as Runner
participant "core.case_orchestrator" as CaseOrchestrator
participant "engine_config" as EngineConfig
participant "case_implementation.py" as CaseImplementation
participant "workflow.py" as Workflow
participant "synthetic_data.py" as Synthetic
participant "case_config.py" as CaseConfig
participant "MODEL_REGISTRY\n(one_reservoir / two_reservoirs)" as Registry
participant "CalibrationEngine" as Engine
participant "CalibrationMethod" as Dispatcher
participant "Selected method\n(simplex, gp_mapping, da_mh_gp, ...)" as MethodImpl
participant "CalibrationResults" as Results
participant "plotting.py" as Plotting

User -> Runner: run script
Runner -> CaseOrchestrator: run_calibration_case_from_toml(config, CASE_IMPLEMENTATION)
CaseOrchestrator -> EngineConfig: load_calibration_toml(config_calibration_two_reservoir.toml)
EngineConfig - -> CaseOrchestrator: validated configuration

CaseOrchestrator -> CaseImplementation: validate_case_config(chronicle_section, ...)
CaseImplementation -> CaseConfig: validate_reservoir_chronicle_config(...)
CaseConfig - -> CaseImplementation: normalized chronicle config
CaseImplementation - -> CaseOrchestrator: case_config

CaseOrchestrator -> CaseImplementation: build_case(case_config, calibration_section, ...)
CaseImplementation -> Synthetic: build_noisy_reservoir_chronicle(...)
Synthetic -> Registry: parse_chronicle_parameters(...)
Registry - -> Synthetic: true_params + initial_state

alt one_reservoir
  Synthetic -> Registry: simulate_outflow(..., forcing = Qin)
else two_reservoirs
  Synthetic -> Registry: simulate_outflow(..., forcing = P)
end
Synthetic - -> CaseImplementation: chronicle (forcing, true flow, noisy observations)
CaseImplementation -> Workflow: make_reservoir_simulator(...)
CaseImplementation -> Workflow: get_model_parameter_order(...)
Workflow - -> CaseImplementation: simulator + parameter_order
CaseImplementation - -> CaseOrchestrator: CalibrationCaseContext

CaseOrchestrator -> EngineConfig: resolve_calibration_settings(config, parameter_order)
EngineConfig - -> CaseOrchestrator: objective_metric, method, parameter_set, method_kwargs

CaseOrchestrator -> Engine: __init__(observed, simulator, parameter_set, objective_metric)
CaseOrchestrator -> Engine: calibrate(method, **method_kwargs)
Engine -> Dispatcher: calibrate(objective_cost, bounds, method, **kwargs)
Dispatcher -> MethodImpl: method(objective_cost, bounds, **kwargs)

loop full-model evaluations
  MethodImpl -> Engine: objective_cost(x)
  Engine -> Engine: cost(x) -> simulate(x) -> value_to_cost(...)
end

MethodImpl - -> Dispatcher: method output (dict)
Dispatcher - -> Engine: raw result
Engine -> Results: from_method_output(...)
Engine -> Results: attach_context(vector_to_params, score_best)
Results - -> Engine: structured result
Engine - -> CaseOrchestrator: CalibrationResults

CaseOrchestrator -> CaseImplementation: build_case_outputs(...)
CaseImplementation -> Workflow: evaluate_metrics(...)
CaseImplementation - -> CaseOrchestrator: metrics + params + q_calib
CaseOrchestrator - -> Runner: calibration payload

Runner -> Runner: print terminal summary
Runner -> Plotting: plot_calibration_result(chronicle, calibration, output_png, show_plot)
Plotting - -> Runner: figure saved/displayed
Runner - -> User: summary + figure path

@enduml

PlantUML version 1.2020.02(Sun Mar 01 10:22:07 UTC 2020)
(GPL source distribution)
Java Runtime: OpenJDK Runtime Environment
JVM: OpenJDK 64-Bit Server VM
Java Version: 17.0.20+8
Operating System: Linux
Default Encoding: UTF-8
Language: en
Country: null
--></g></svg>