<?xml version="1.0" encoding="UTF-8" standalone="no"?><svg xmlns="http://www.w3.org/2000/svg" xmlns:xlink="http://www.w3.org/1999/xlink" contentScriptType="application/ecmascript" contentStyleType="text/css" height="1058px" preserveAspectRatio="none" style="width:679px;height:1058px;" version="1.1" viewBox="0 0 679 1058" width="679px" zoomAndPan="magnify"><defs><filter height="300%" id="fdecl9hg2f910" width="300%" x="-1" y="-1"><feGaussianBlur result="blurOut" stdDeviation="2.0"/><feColorMatrix in="blurOut" result="blurOut2" type="matrix" values="0 0 0 0 0 0 0 0 0 0 0 0 0 0 0 0 0 0 .4 0"/><feOffset dx="4.0" dy="4.0" in="blurOut2" result="blurOut3"/><feBlend in="SourceGraphic" in2="blurOut3" mode="normal"/></filter></defs><g><text fill="#000000" font-family="sans-serif" font-size="18" lengthAdjust="spacingAndGlyphs" textLength="352" x="167" y="16.708">ProcessSpatial - Lifecycle State Machine</text><ellipse cx="319" cy="38.9531" fill="#000000" filter="url(#fdecl9hg2f910)" rx="10" ry="10" style="stroke: none; stroke-width: 1.0;"/><rect fill="#FEFECE" filter="url(#fdecl9hg2f910)" height="50" rx="12.5" ry="12.5" style="stroke: #A80036; stroke-width: 1.5;" width="75" x="281.5" y="109.9531"/><line style="stroke: #A80036; stroke-width: 1.5;" x1="281.5" x2="356.5" y1="136.25" y2="136.25"/><text fill="#000000" font-family="sans-serif" font-size="14" lengthAdjust="spacingAndGlyphs" textLength="55" x="291.5" y="127.9482">Created</text><rect fill="#FEFECE" filter="url(#fdecl9hg2f910)" height="50" rx="12.5" ry="12.5" style="stroke: #A80036; stroke-width: 1.5;" width="127" x="255.5" y="251.9531"/><line style="stroke: #A80036; stroke-width: 1.5;" x1="255.5" x2="382.5" y1="278.25" y2="278.25"/><text fill="#000000" font-family="sans-serif" font-size="14" lengthAdjust="spacingAndGlyphs" textLength="107" x="265.5" y="269.9482">ConfigValidated</text><rect fill="#FEFECE" filter="url(#fdecl9hg2f910)" height="50" rx="12.5" ry="12.5" style="stroke: #A80036; stroke-width: 1.5;" width="140" x="249" y="393.9531"/><line style="stroke: #A80036; stroke-width: 1.5;" x1="249" x2="389" y1="420.25" y2="420.25"/><text fill="#000000" font-family="sans-serif" font-size="14" lengthAdjust="spacingAndGlyphs" textLength="120" x="259" y="411.9482">RuntimeHydrated</text><rect fill="#FEFECE" filter="url(#fdecl9hg2f910)" height="50" rx="12.5" ry="12.5" style="stroke: #A80036; stroke-width: 1.5;" width="147" x="75.5" y="520.9531"/><line style="stroke: #A80036; stroke-width: 1.5;" x1="75.5" x2="222.5" y1="547.25" y2="547.25"/><text fill="#000000" font-family="sans-serif" font-size="14" lengthAdjust="spacingAndGlyphs" textLength="127" x="85.5" y="538.9482">PreparedForSolver</text><rect fill="#FEFECE" filter="url(#fdecl9hg2f910)" height="50" rx="12.5" ry="12.5" style="stroke: #A80036; stroke-width: 1.5;" width="69" x="114.5" y="647.9531"/><line style="stroke: #A80036; stroke-width: 1.5;" x1="114.5" x2="183.5" y1="674.25" y2="674.25"/><text fill="#000000" font-family="sans-serif" font-size="14" lengthAdjust="spacingAndGlyphs" textLength="49" x="124.5" y="665.9482">Solving</text><rect fill="#FEFECE" filter="url(#fdecl9hg2f910)" height="50" rx="12.5" ry="12.5" style="stroke: #A80036; stroke-width: 1.5;" width="66" x="6" y="774.9531"/><line style="stroke: #A80036; stroke-width: 1.5;" x1="6" x2="72" y1="801.25" y2="801.25"/><text fill="#000000" font-family="sans-serif" font-size="14" lengthAdjust="spacingAndGlyphs" textLength="46" x="16" y="792.9482">Solved</text><rect fill="#FEFECE" filter="url(#fdecl9hg2f910)" height="50" rx="12.5" ry="12.5" style="stroke: #A80036; stroke-width: 1.5;" width="60" x="207" y="774.9531"/><line style="stroke: #A80036; stroke-width: 1.5;" x1="207" x2="267" y1="801.25" y2="801.25"/><text fill="#000000" font-family="sans-serif" font-size="14" lengthAdjust="spacingAndGlyphs" textLength="40" x="217" y="792.9482">Failed</text><rect fill="#FEFECE" filter="url(#fdecl9hg2f910)" height="50" rx="12.5" ry="12.5" style="stroke: #A80036; stroke-width: 1.5;" width="125" x="185.5" y="916.9531"/><line style="stroke: #A80036; stroke-width: 1.5;" x1="185.5" x2="310.5" y1="943.25" y2="943.25"/><text fill="#000000" font-family="sans-serif" font-size="14" lengthAdjust="spacingAndGlyphs" textLength="105" x="195.5" y="934.9482">PostProcessed</text><ellipse cx="248" cy="1037.9531" fill="none" filter="url(#fdecl9hg2f910)" rx="10" ry="10" style="stroke: #000000; stroke-width: 1.0;"/><ellipse cx="248.5" cy="1038.4531" fill="#000000" rx="6" ry="6" style="stroke: none; stroke-width: 1.0;"/><!--MD5=[fce0a99ff020773a13d941767c2fc94a]
link *start to Created--><path d="M319,48.9631 C319,61.6531 319,85.3631 319,104.5231 " fill="none" id="*start-&gt;Created" style="stroke: #A80036; stroke-width: 1.0;"/><polygon fill="#A80036" points="319,109.7931,323,100.7931,319,104.7931,315,100.7931,319,109.7931" style="stroke: #A80036; stroke-width: 1.0;"/><!--MD5=[ef3e50c068a776bcf6e34b41d13aa16f]
link Created to ConfigValidated--><path d="M319,160.0231 C319,183.9631 319,220.7331 319,246.4231 " fill="none" id="Created-&gt;ConfigValidated" style="stroke: #A80036; stroke-width: 1.0;"/><polygon fill="#A80036" points="319,251.7331,323,242.7331,319,246.7331,315,242.7331,319,251.7331" style="stroke: #A80036; stroke-width: 1.0;"/><text fill="#000000" font-family="sans-serif" font-size="13" lengthAdjust="spacingAndGlyphs" textLength="136" x="347" y="203.02">validate config model</text><text fill="#000000" font-family="sans-serif" font-size="13" lengthAdjust="spacingAndGlyphs" textLength="190" x="320" y="218.1528">(FlowConfig / TransportConfig)</text><!--MD5=[8a4e501a81185a59bb60c81f6d9dfd09]
link ConfigValidated to RuntimeHydrated--><path d="M319,302.0231 C319,325.9631 319,362.7331 319,388.4231 " fill="none" id="ConfigValidated-&gt;RuntimeHydrated" style="stroke: #A80036; stroke-width: 1.0;"/><polygon fill="#A80036" points="319,393.7331,323,384.7331,319,388.7331,315,384.7331,319,393.7331" style="stroke: #A80036; stroke-width: 1.0;"/><text fill="#000000" font-family="sans-serif" font-size="13" lengthAdjust="spacingAndGlyphs" textLength="113" x="386.5" y="345.02">apply set_config()</text><text fill="#000000" font-family="sans-serif" font-size="13" lengthAdjust="spacingAndGlyphs" textLength="246" x="320" y="360.1528">parameters + ic + bc + sinks_sources</text><!--MD5=[5a3ef069a57f96728796d6b6f9848c68]
link RuntimeHydrated to PreparedForSolver--><path d="M248.64,422.8831 C211.76,428.4331 169.49,442.0131 146,473.9531 C137.34,485.7231 137.34,501.8031 139.83,515.6831 " fill="none" id="RuntimeHydrated-&gt;PreparedForSolver" style="stroke: #A80036; stroke-width: 1.0;"/><polygon fill="#A80036" points="140.86,520.6831,142.9796,511.065,139.8602,515.7841,135.1411,512.6647,140.86,520.6831" style="stroke: #A80036; stroke-width: 1.0;"/><text fill="#000000" font-family="sans-serif" font-size="13" lengthAdjust="spacingAndGlyphs" textLength="145" x="147" y="487.02">build adapter payloads</text><!--MD5=[209f88b7f29fd7b927e8792198b67f59]
link PreparedForSolver to Solving--><path d="M149,571.0531 C149,591.5431 149,621.0331 149,642.8331 " fill="none" id="PreparedForSolver-&gt;Solving" style="stroke: #A80036; stroke-width: 1.0;"/><polygon fill="#A80036" points="149,647.9231,153,638.9231,149,642.9231,145,638.9231,149,647.9231" style="stroke: #A80036; stroke-width: 1.0;"/><text fill="#000000" font-family="sans-serif" font-size="13" lengthAdjust="spacingAndGlyphs" textLength="109" x="150" y="614.02">launch solver run</text><!--MD5=[89b1437433fe6d9aed0a20576aba96f9]
link Solving to Solved--><path d="M114.36,682.1631 C90.36,689.7931 59.97,703.7431 44,727.9531 C36.07,739.9731 34.33,755.7631 34.78,769.4031 " fill="none" id="Solving-&gt;Solved" style="stroke: #A80036; stroke-width: 1.0;"/><polygon fill="#A80036" points="35.06,774.7031,38.5663,765.4995,34.789,769.7105,30.578,765.9332,35.06,774.7031" style="stroke: #A80036; stroke-width: 1.0;"/><text fill="#000000" font-family="sans-serif" font-size="13" lengthAdjust="spacingAndGlyphs" textLength="93" x="45" y="741.02">solver success</text><!--MD5=[817149b6d0b587bd3900132fda37b1f5]
link Solving to Failed--><path d="M145.1,698.2131 C144,712.7131 144.85,730.9831 153,744.9531 C163.86,763.5731 183.98,776.8431 201.8,785.5631 " fill="none" id="Solving-&gt;Failed" style="stroke: #A80036; stroke-width: 1.0;"/><polygon fill="#A80036" points="206.76,787.9031,200.3448,780.4302,202.2431,785.759,196.9142,787.6573,206.76,787.9031" style="stroke: #A80036; stroke-width: 1.0;"/><text fill="#000000" font-family="sans-serif" font-size="13" lengthAdjust="spacingAndGlyphs" textLength="138" x="154" y="741.02">solver or IO exception</text><!--MD5=[144ec050cc818f99dad9536a3555bd43]
link Solved to PostProcessed--><path d="M72.12,823.1331 C108.88,847.7631 168.21,887.5031 207.65,913.9231 " fill="none" id="Solved-&gt;PostProcessed" style="stroke: #A80036; stroke-width: 1.0;"/><polygon fill="#A80036" points="211.88,916.7631,206.6301,908.4301,207.7263,913.9798,202.1767,915.076,211.88,916.7631" style="stroke: #A80036; stroke-width: 1.0;"/><text fill="#000000" font-family="sans-serif" font-size="13" lengthAdjust="spacingAndGlyphs" textLength="117" x="200" y="868.02">export diagnostics</text><text fill="#000000" font-family="sans-serif" font-size="13" lengthAdjust="spacingAndGlyphs" textLength="189" x="164" y="883.1528">and compute derived outputs</text><!--MD5=[3eabc063018b856ef949f67d50434547]
link PostProcessed to RuntimeHydrated--><path d="M310.69,926.9531 C371.93,909.1431 456,871.7931 456,800.9531 C456,544.9531 456,544.9531 456,544.9531 C456,500.2431 415.69,467.2631 378.81,446.4331 " fill="none" id="PostProcessed-&gt;RuntimeHydrated" style="stroke: #A80036; stroke-width: 1.0;"/><polygon fill="#A80036" points="374.33,443.9531,380.2745,451.8057,378.7068,446.3704,384.1421,444.8027,374.33,443.9531" style="stroke: #A80036; stroke-width: 1.0;"/><text fill="#000000" font-family="sans-serif" font-size="13" lengthAdjust="spacingAndGlyphs" textLength="210" x="457" y="677.52">update parameters/reload config</text><!--MD5=[d14da2bc21e0960641334f016ac52840]
link Failed to RuntimeHydrated--><path d="M267.02,779.5731 C278.45,770.5131 290.32,758.6931 297,744.9531 C309.74,718.7531 316.23,524.1731 318.27,449.2431 " fill="none" id="Failed-&gt;RuntimeHydrated" style="stroke: #A80036; stroke-width: 1.0;"/><polygon fill="#A80036" points="318.41,444.0631,314.1793,452.957,318.2811,449.0615,322.1767,453.1633,318.41,444.0631" style="stroke: #A80036; stroke-width: 1.0;"/><text fill="#000000" font-family="sans-serif" font-size="13" lengthAdjust="spacingAndGlyphs" textLength="112" x="314" y="614.02">fix input and retry</text><!--MD5=[05704b0b22602b9ebb80c9739bb4790d]
link PostProcessed to *end--><path d="M248,967.1631 C248,984.7931 248,1008.0831 248,1022.7931 " fill="none" id="PostProcessed-&gt;*end" style="stroke: #A80036; stroke-width: 1.0;"/><polygon fill="#A80036" points="248,1027.7931,252,1018.7931,248,1022.7931,244,1018.7931,248,1027.7931" style="stroke: #A80036; stroke-width: 1.0;"/><!--MD5=[e0953b8f9e9b2f4c690a55ed91605ded]
@startuml
title ProcessSpatial - Lifecycle State Machine

[*] - -> Created

Created - -> ConfigValidated : validate config model\n(FlowConfig / TransportConfig)
ConfigValidated - -> RuntimeHydrated : apply set_config()\nparameters + ic + bc + sinks_sources
RuntimeHydrated - -> PreparedForSolver : build adapter payloads
PreparedForSolver - -> Solving : launch solver run

Solving - -> Solved : solver success
Solving - -> Failed : solver or IO exception

Solved - -> PostProcessed : export diagnostics\nand compute derived outputs
PostProcessed - -> RuntimeHydrated : update parameters/reload config
Failed - -> RuntimeHydrated : fix input and retry

PostProcessed - -> [*]
@enduml

PlantUML version 1.2020.02(Sun Mar 01 10:22:07 UTC 2020)
(GPL source distribution)
Java Runtime: OpenJDK Runtime Environment
JVM: OpenJDK 64-Bit Server VM
Java Version: 17.0.19+10
Operating System: Linux
Default Encoding: UTF-8
Language: en
Country: null
--></g></svg>