<?xml version="1.0" encoding="UTF-8" standalone="no"?><svg xmlns="http://www.w3.org/2000/svg" xmlns:xlink="http://www.w3.org/1999/xlink" contentScriptType="application/ecmascript" contentStyleType="text/css" height="905px" preserveAspectRatio="none" style="width:2199px;height:905px;" version="1.1" viewBox="0 0 2199 905" width="2199px" zoomAndPan="magnify"><defs><filter height="300%" id="fhx3n7ktnjugy" width="300%" x="-1" y="-1"><feGaussianBlur result="blurOut" stdDeviation="2.0"/><feColorMatrix in="blurOut" result="blurOut2" type="matrix" values="0 0 0 0 0 0 0 0 0 0 0 0 0 0 0 0 0 0 .4 0"/><feOffset dx="4.0" dy="4.0" in="blurOut2" result="blurOut3"/><feBlend in="SourceGraphic" in2="blurOut3" mode="normal"/></filter></defs><g><text fill="#000000" font-family="sans-serif" font-size="18" lengthAdjust="spacingAndGlyphs" textLength="382" x="912" y="16.708">Simulation Time Cycle - Structure Diagram</text><!--MD5=[c9b3e44a4dcddd414bf8559de41ca2e6]
entity RunToml--><rect fill="#FEFECE" filter="url(#fhx3n7ktnjugy)" height="52.5938" style="stroke: #A80036; stroke-width: 1.5;" width="296" x="6" y="28.9531"/><rect fill="#FEFECE" height="5" style="stroke: #A80036; stroke-width: 1.5;" width="10" x="1" y="33.9531"/><rect fill="#FEFECE" height="5" style="stroke: #A80036; stroke-width: 1.5;" width="10" x="1" y="71.5469"/><text fill="#000000" font-family="sans-serif" font-size="14" lengthAdjust="spacingAndGlyphs" textLength="71" x="16" y="51.9482">Run TOML</text><text fill="#000000" font-family="sans-serif" font-size="14" lengthAdjust="spacingAndGlyphs" textLength="276" x="16" y="68.2451">[simulation.time] + [recharge_chronicle]</text><!--MD5=[b2847796c4ce506e75d4dbdfce902b87]
entity TypedConfig--><rect fill="#FEFECE" filter="url(#fhx3n7ktnjugy)" height="52.5938" style="stroke: #A80036; stroke-width: 1.5;" width="150" x="601" y="158.9531"/><rect fill="#FEFECE" height="5" style="stroke: #A80036; stroke-width: 1.5;" width="10" x="596" y="163.9531"/><rect fill="#FEFECE" height="5" style="stroke: #A80036; stroke-width: 1.5;" width="10" x="596" y="201.5469"/><text fill="#000000" font-family="sans-serif" font-size="14" lengthAdjust="spacingAndGlyphs" textLength="130" x="611" y="181.9482">HydroModPyConfig</text><text fill="#000000" font-family="sans-serif" font-size="14" lengthAdjust="spacingAndGlyphs" textLength="100" x="611" y="198.2451">(Pydantic tree)</text><!--MD5=[37aa305a901e218237a1197c3a08e242]
entity TimeCore--><rect fill="#FEFECE" filter="url(#fhx3n7ktnjugy)" height="52.5938" style="stroke: #A80036; stroke-width: 1.5;" width="231" x="1147.5" y="288.9531"/><rect fill="#FEFECE" height="5" style="stroke: #A80036; stroke-width: 1.5;" width="10" x="1142.5" y="293.9531"/><rect fill="#FEFECE" height="5" style="stroke: #A80036; stroke-width: 1.5;" width="10" x="1142.5" y="331.5469"/><text fill="#000000" font-family="sans-serif" font-size="14" lengthAdjust="spacingAndGlyphs" textLength="71" x="1157.5" y="311.9482">Time Core</text><text fill="#000000" font-family="sans-serif" font-size="14" lengthAdjust="spacingAndGlyphs" textLength="211" x="1157.5" y="328.2451">hydromodpy.core.time.window</text><!--MD5=[34cc0eb5aecfe0c894d9c7cc8648c52a]
entity Project--><rect fill="#FEFECE" filter="url(#fhx3n7ktnjugy)" height="52.5938" style="stroke: #A80036; stroke-width: 1.5;" width="158" x="1296" y="418.9531"/><rect fill="#FEFECE" height="5" style="stroke: #A80036; stroke-width: 1.5;" width="10" x="1291" y="423.9531"/><rect fill="#FEFECE" height="5" style="stroke: #A80036; stroke-width: 1.5;" width="10" x="1291" y="461.5469"/><text fill="#000000" font-family="sans-serif" font-size="14" lengthAdjust="spacingAndGlyphs" textLength="102" x="1306" y="441.9482">Project Facade</text><text fill="#000000" font-family="sans-serif" font-size="14" lengthAdjust="spacingAndGlyphs" textLength="138" x="1306" y="458.2451">hydromodpy.Project</text><!--MD5=[ff35d05be0a96b53556afae0006e7906]
entity RuntimeState--><rect fill="#FEFECE" filter="url(#fhx3n7ktnjugy)" height="52.5938" style="stroke: #A80036; stroke-width: 1.5;" width="127" x="1329.5" y="548.9531"/><rect fill="#FEFECE" height="5" style="stroke: #A80036; stroke-width: 1.5;" width="10" x="1324.5" y="553.9531"/><rect fill="#FEFECE" height="5" style="stroke: #A80036; stroke-width: 1.5;" width="10" x="1324.5" y="591.5469"/><text fill="#000000" font-family="sans-serif" font-size="14" lengthAdjust="spacingAndGlyphs" textLength="98" x="1339.5" y="571.9482">Runtime State</text><text fill="#000000" font-family="sans-serif" font-size="14" lengthAdjust="spacingAndGlyphs" textLength="107" x="1339.5" y="588.2451">setup.time_grid</text><!--MD5=[318a66dff41aa209a476f190d8d7a55f]
entity SolverTgrid--><rect fill="#FEFECE" filter="url(#fhx3n7ktnjugy)" height="52.5938" style="stroke: #A80036; stroke-width: 1.5;" width="253" x="1516.5" y="418.9531"/><rect fill="#FEFECE" height="5" style="stroke: #A80036; stroke-width: 1.5;" width="10" x="1511.5" y="423.9531"/><rect fill="#FEFECE" height="5" style="stroke: #A80036; stroke-width: 1.5;" width="10" x="1511.5" y="461.5469"/><text fill="#000000" font-family="sans-serif" font-size="14" lengthAdjust="spacingAndGlyphs" textLength="147" x="1526.5" y="441.9482">Solver TGrid Sections</text><text fill="#000000" font-family="sans-serif" font-size="14" lengthAdjust="spacingAndGlyphs" textLength="233" x="1526.5" y="458.2451">modflownwt.tgrid / modflow6.tgrid</text><!--MD5=[87ac2b03201886607e29dee8b730a30d]
entity DataLoader--><rect fill="#FEFECE" filter="url(#fhx3n7ktnjugy)" height="52.5938" style="stroke: #A80036; stroke-width: 1.5;" width="237" x="1789.5" y="548.9531"/><rect fill="#FEFECE" height="5" style="stroke: #A80036; stroke-width: 1.5;" width="10" x="1784.5" y="553.9531"/><rect fill="#FEFECE" height="5" style="stroke: #A80036; stroke-width: 1.5;" width="10" x="1784.5" y="591.5469"/><text fill="#000000" font-family="sans-serif" font-size="14" lengthAdjust="spacingAndGlyphs" textLength="217" x="1799.5" y="571.9482">Data Managers Runtime Loader</text><text fill="#000000" font-family="sans-serif" font-size="14" lengthAdjust="spacingAndGlyphs" textLength="103" x="1799.5" y="588.2451">runtime_loader</text><!--MD5=[91d074d2c568225508299dab07bbd95d]
entity RechargeConfig--><rect fill="#FEFECE" filter="url(#fhx3n7ktnjugy)" height="52.5938" style="stroke: #A80036; stroke-width: 1.5;" width="252" x="57" y="698.4531"/><rect fill="#FEFECE" height="5" style="stroke: #A80036; stroke-width: 1.5;" width="10" x="52" y="703.4531"/><rect fill="#FEFECE" height="5" style="stroke: #A80036; stroke-width: 1.5;" width="10" x="52" y="741.0469"/><text fill="#000000" font-family="sans-serif" font-size="14" lengthAdjust="spacingAndGlyphs" textLength="184" x="67" y="721.4482">Recharge Chronicle Config</text><text fill="#000000" font-family="sans-serif" font-size="14" lengthAdjust="spacingAndGlyphs" textLength="232" x="67" y="737.7451">forcing.recharge_chronicle_config</text><!--MD5=[43039331b78e73d8a1bddf6bcc994a65]
entity RechargeBuilder--><rect fill="#FEFECE" filter="url(#fhx3n7ktnjugy)" height="52.5938" style="stroke: #A80036; stroke-width: 1.5;" width="208" x="753" y="548.9531"/><rect fill="#FEFECE" height="5" style="stroke: #A80036; stroke-width: 1.5;" width="10" x="748" y="553.9531"/><rect fill="#FEFECE" height="5" style="stroke: #A80036; stroke-width: 1.5;" width="10" x="748" y="591.5469"/><text fill="#000000" font-family="sans-serif" font-size="14" lengthAdjust="spacingAndGlyphs" textLength="188" x="763" y="571.9482">Recharge Chronicle Builder</text><text fill="#000000" font-family="sans-serif" font-size="14" lengthAdjust="spacingAndGlyphs" textLength="183" x="763" y="588.2451">forcing.recharge_chronicle</text><!--MD5=[38fef58ec6ae69786ef52bc1d94b04bd]
entity HydroForcing--><rect fill="#FEFECE" filter="url(#fhx3n7ktnjugy)" height="52.5938" style="stroke: #A80036; stroke-width: 1.5;" width="211" x="780.5" y="698.4531"/><rect fill="#FEFECE" height="5" style="stroke: #A80036; stroke-width: 1.5;" width="10" x="775.5" y="703.4531"/><rect fill="#FEFECE" height="5" style="stroke: #A80036; stroke-width: 1.5;" width="10" x="775.5" y="741.0469"/><text fill="#000000" font-family="sans-serif" font-size="14" lengthAdjust="spacingAndGlyphs" textLength="191" x="790.5" y="721.4482">Hydrology Synthetic Forcing</text><text fill="#000000" font-family="sans-serif" font-size="14" lengthAdjust="spacingAndGlyphs" textLength="185" x="790.5" y="737.7451">hydrology.synthetic.forcing</text><!--MD5=[0d4230eb9ebad9e9abe082532e8c0cee]
entity CoverageGuard--><rect fill="#FEFECE" filter="url(#fhx3n7ktnjugy)" height="52.5938" style="stroke: #A80036; stroke-width: 1.5;" width="222" x="1120" y="835.4531"/><rect fill="#FEFECE" height="5" style="stroke: #A80036; stroke-width: 1.5;" width="10" x="1115" y="840.4531"/><rect fill="#FEFECE" height="5" style="stroke: #A80036; stroke-width: 1.5;" width="10" x="1115" y="878.0469"/><text fill="#000000" font-family="sans-serif" font-size="14" lengthAdjust="spacingAndGlyphs" textLength="112" x="1130" y="858.4482">Coverage Guard</text><text fill="#000000" font-family="sans-serif" font-size="14" lengthAdjust="spacingAndGlyphs" textLength="202" x="1130" y="874.7451">validate_recharge_coverage()</text><!--MD5=[0b6536a6ebb4230cb9bc6ac5cf1a0887]
entity FlowSolvers--><rect fill="#FEFECE" filter="url(#fhx3n7ktnjugy)" height="52.5938" style="stroke: #A80036; stroke-width: 1.5;" width="167" x="1363.5" y="698.4531"/><rect fill="#FEFECE" height="5" style="stroke: #A80036; stroke-width: 1.5;" width="10" x="1358.5" y="703.4531"/><rect fill="#FEFECE" height="5" style="stroke: #A80036; stroke-width: 1.5;" width="10" x="1358.5" y="741.0469"/><text fill="#000000" font-family="sans-serif" font-size="14" lengthAdjust="spacingAndGlyphs" textLength="147" x="1373.5" y="721.4482">Flow Solver Wrappers</text><text fill="#000000" font-family="sans-serif" font-size="14" lengthAdjust="spacingAndGlyphs" textLength="136" x="1373.5" y="737.7451">Modflow / Modflow6</text><!--MD5=[b0f662026e82f5efb37a028c3e34d53a]
entity ForcingSeries--><path d="M1137.5,703.9531 C1137.5,693.9531 1225,693.9531 1225,693.9531 C1225,693.9531 1312.5,693.9531 1312.5,703.9531 L1312.5,745.5469 C1312.5,755.5469 1225,755.5469 1225,755.5469 C1225,755.5469 1137.5,755.5469 1137.5,745.5469 L1137.5,703.9531 " fill="#FEFECE" filter="url(#fhx3n7ktnjugy)" style="stroke: #000000; stroke-width: 1.5;"/><path d="M1137.5,703.9531 C1137.5,713.9531 1225,713.9531 1225,713.9531 C1225,713.9531 1312.5,713.9531 1312.5,703.9531 " fill="none" style="stroke: #000000; stroke-width: 1.5;"/><text fill="#000000" font-family="sans-serif" font-size="14" lengthAdjust="spacingAndGlyphs" textLength="155" x="1147.5" y="730.9482">Climatic Forcing Series</text><text fill="#000000" font-family="sans-serif" font-size="14" lengthAdjust="spacingAndGlyphs" textLength="115" x="1147.5" y="747.2451">recharge / runoff</text><!--MD5=[3a96166a33bf309a991bb4e6edf034d8]
entity FlowConfig--><ellipse cx="1428" cy="861.9531" fill="#FEFECE" filter="url(#fhx3n7ktnjugy)" rx="8" ry="8" style="stroke: #A80036; stroke-width: 2.0;"/><text fill="#000000" font-family="sans-serif" font-size="14" lengthAdjust="spacingAndGlyphs" textLength="75" x="1390.5" y="891.9482">FlowConfig</text><!--MD5=[4f7a69a17df72de737fadbf2118c42dc]
link RunToml to TypedConfig--><path d="M258.07,81.9731 C357.46,106.3431 505.15,142.5631 595.75,164.7731 " fill="none" id="RunToml-&gt;TypedConfig" style="stroke: #A80036; stroke-width: 1.0;"/><polygon fill="#A80036" points="600.83,166.0231,593.0521,159.9813,595.9759,164.8239,591.1333,167.7477,600.83,166.0231" style="stroke: #A80036; stroke-width: 1.0;"/><text fill="#000000" font-family="sans-serif" font-size="13" lengthAdjust="spacingAndGlyphs" textLength="169" x="448" y="125.02">load simulation config tree</text><!--MD5=[31b4891c0ff791919854d5beb4685852]
link TypedConfig to TimeCore--><path d="M751.24,202.8631 C850.08,224.4131 1024.85,262.5231 1142.29,288.1331 " fill="none" id="TypedConfig-&gt;TimeCore" style="stroke: #A80036; stroke-width: 1.0;"/><polygon fill="#A80036" points="1147.49,289.2631,1139.5557,283.4281,1142.6061,288.1921,1137.8421,291.2424,1147.49,289.2631" style="stroke: #A80036; stroke-width: 1.0;"/><text fill="#000000" font-family="sans-serif" font-size="13" lengthAdjust="spacingAndGlyphs" textLength="235" x="1006" y="255.02">resolve_simulation_time_window/grid</text><!--MD5=[02920ab1de36d9048360ac3352b8f66a]
link TimeCore to Project--><path d="M1174.2,342.0231 C1149.3,353.7631 1132.7,369.4631 1148,388.9531 C1165.78,411.6031 1233.65,426.2031 1290.59,434.7131 " fill="none" id="TimeCore-&gt;Project" style="stroke: #A80036; stroke-width: 1.0;"/><polygon fill="#A80036" points="1295.71,435.4631,1287.3873,430.1969,1290.7631,434.7361,1286.224,438.1119,1295.71,435.4631" style="stroke: #A80036; stroke-width: 1.0;"/><text fill="#000000" font-family="sans-serif" font-size="13" lengthAdjust="spacingAndGlyphs" textLength="182" x="1149" y="385.02">ResolvedSimulationTimeGrid</text><!--MD5=[ab87b0fdbae27d587db476d0004da2b5]
link Project to TimeCore--><path d="M1364.41,418.6331 C1357.64,403.9831 1347.89,385.8631 1336,371.9531 C1327.69,362.2331 1317.41,353.1431 1307.21,345.2531 " fill="none" id="Project-&gt;TimeCore" style="stroke: #A80036; stroke-width: 1.0;"/><polygon fill="#A80036" points="1303.16,342.1731,1307.9059,350.8031,1307.1411,345.1982,1312.746,344.4334,1303.16,342.1731" style="stroke: #A80036; stroke-width: 1.0;"/><text fill="#000000" font-family="sans-serif" font-size="13" lengthAdjust="spacingAndGlyphs" textLength="226" x="1349" y="385.02">require_flow_simulation_time_grid()</text><!--MD5=[ab87b0fdbae27d587db476d0004da2b5]
link Project to TimeCore--><path d="M1295.91,441.1231 C1164.69,434.7931 913.71,418.8731 887,388.9531 C850.29,347.8331 1018.91,329.5631 1142.25,321.7931 " fill="none" id="Project-&gt;TimeCore-1" style="stroke: #A80036; stroke-width: 1.0;"/><polygon fill="#A80036" points="1147.35,321.4831,1138.1162,318.0573,1142.3599,321.7977,1138.6195,326.0414,1147.35,321.4831" style="stroke: #A80036; stroke-width: 1.0;"/><text fill="#000000" font-family="sans-serif" font-size="13" lengthAdjust="spacingAndGlyphs" textLength="246" x="888" y="385.02">apply_explicit_time_window_to_tgrids()</text><!--MD5=[10059d9071bd7b07220a6251fe9077b0]
link Project to RuntimeState--><path d="M1378.6,472.0531 C1381.51,492.7131 1385.6,521.8631 1388.69,543.7831 " fill="none" id="Project-&gt;RuntimeState" style="stroke: #A80036; stroke-width: 1.0;"/><polygon fill="#A80036" points="1389.41,548.9031,1392.1085,539.4312,1388.7089,543.9525,1384.1875,540.5529,1389.41,548.9031" style="stroke: #A80036; stroke-width: 1.0;"/><text fill="#000000" font-family="sans-serif" font-size="13" lengthAdjust="spacingAndGlyphs" textLength="135" x="1387" y="515.02">persist canonical grid</text><!--MD5=[05fdf779aaa1d4194e0e220277b78270]
link TimeCore to SolverTgrid--><path d="M1378.71,327.8431 C1456.04,337.0731 1549.65,351.8531 1584,371.9531 C1601.41,382.1431 1615.83,399.5331 1626.05,414.7231 " fill="none" id="TimeCore-&gt;SolverTgrid" style="stroke: #A80036; stroke-width: 1.0;"/><polygon fill="#A80036" points="1628.82,418.9431,1627.2328,409.223,1626.0795,414.761,1620.5415,413.6078,1628.82,418.9431" style="stroke: #A80036; stroke-width: 1.0;"/><text fill="#000000" font-family="sans-serif" font-size="13" lengthAdjust="spacingAndGlyphs" textLength="281" x="1604" y="385.02">sync nper,lenper,itmuni,genmtd,ntsp,tsmult</text><!--MD5=[b9832a523b8585af912dd0c7d0db056b]
link Project to DataLoader--><path d="M1454.23,463.5831 C1469.07,466.5631 1484.48,469.4831 1499,471.9531 C1597.15,488.6531 1624.58,477.1231 1721,501.9531 C1764.4,513.1331 1811.44,531.4031 1847.48,546.8031 " fill="none" id="Project-&gt;DataLoader" style="stroke: #A80036; stroke-width: 1.0;"/><polygon fill="#A80036" points="1852.26,548.8531,1845.5634,541.6313,1847.6643,546.8835,1842.412,548.9844,1852.26,548.8531" style="stroke: #A80036; stroke-width: 1.0;"/><text fill="#000000" font-family="sans-serif" font-size="13" lengthAdjust="spacingAndGlyphs" textLength="119" x="1774" y="515.02">load_all(run_state)</text><!--MD5=[f6ea34c895ee4eae98183c881539f4b0]
link DataLoader to TimeCore--><path d="M1915.47,548.8431 C1926.28,505.8231 1940.28,419.1131 1894,371.9531 C1859.08,336.3731 1557.02,323.3531 1383.8,318.7831 " fill="none" id="DataLoader-&gt;TimeCore" style="stroke: #A80036; stroke-width: 1.0;"/><polygon fill="#A80036" points="1378.72,318.6531,1387.6142,322.8832,1383.7183,318.7817,1387.8198,314.8858,1378.72,318.6531" style="stroke: #A80036; stroke-width: 1.0;"/><text fill="#000000" font-family="sans-serif" font-size="13" lengthAdjust="spacingAndGlyphs" textLength="260" x="1927" y="450.02">resolve_simulation_time_window_dates()</text><!--MD5=[7e1ca691782da17c3c61543ff0c71d2b]
link Project to RechargeBuilder--><path d="M1295.73,458.8131 C1236.67,468.6831 1154.26,483.8231 1083,501.9531 C1032.72,514.7431 977.24,532.4931 933.83,547.2231 " fill="none" id="Project-&gt;RechargeBuilder" style="stroke: #A80036; stroke-width: 1.0;"/><polygon fill="#A80036" points="928.86,548.9131,938.6697,549.7909,933.5919,547.2977,936.085,542.2199,928.86,548.9131" style="stroke: #A80036; stroke-width: 1.0;"/><text fill="#000000" font-family="sans-serif" font-size="13" lengthAdjust="spacingAndGlyphs" textLength="290" x="1084" y="515.02">build_recharge_chronicle_payload(..., window)</text><!--MD5=[743b4874ccd0fcc06d05b3d72446da96]
link RunToml to RechargeConfig--><path d="M144.66,82.0531 C136.19,107.6231 125,148.2231 125,184.4531 C125,184.4531 125,184.4531 125,576.4531 C125,619.4231 146.58,664.8431 163.41,693.7431 " fill="none" id="RunToml-&gt;RechargeConfig" style="stroke: #A80036; stroke-width: 1.0;"/><polygon fill="#A80036" points="166.07,698.2431,164.9319,688.4603,163.5249,693.9393,158.0458,692.5324,166.07,698.2431" style="stroke: #A80036; stroke-width: 1.0;"/><text fill="#000000" font-family="sans-serif" font-size="13" lengthAdjust="spacingAndGlyphs" textLength="207" x="126" y="385.02">raw [recharge_chronicle] section</text><!--MD5=[477a77c9bcc11d6257ae2d591844ca12]
link RechargeBuilder to RechargeConfig--><path d="M752.78,577.4031 C572.49,580.1431 217.96,590.7531 180,631.9531 C165.13,648.0931 167.08,673.4031 172.08,693.3931 " fill="none" id="RechargeBuilder-&gt;RechargeConfig" style="stroke: #A80036; stroke-width: 1.0;"/><polygon fill="#A80036" points="173.41,698.3531,174.9399,688.6238,172.1137,693.5241,167.2134,690.6979,173.41,698.3531" style="stroke: #A80036; stroke-width: 1.0;"/><text fill="#000000" font-family="sans-serif" font-size="13" lengthAdjust="spacingAndGlyphs" textLength="241" x="181" y="652.52">validate_recharge_chronicle_section()</text><!--MD5=[dedaa70d5e76014540733d93c44b1283]
link RechargeConfig to RechargeBuilder--><path d="M309.28,699.2131 C347.69,690.0231 389.62,678.2631 427,663.9531 C455.23,653.1531 458.31,641.4431 487,631.9531 C571.92,603.8631 672.53,589.9431 747.38,583.0631 " fill="none" id="RechargeConfig-&gt;RechargeBuilder" style="stroke: #A80036; stroke-width: 1.0;"/><polygon fill="#A80036" points="752.73,582.5831,743.4024,579.4216,747.7509,583.0397,744.1328,587.3882,752.73,582.5831" style="stroke: #A80036; stroke-width: 1.0;"/><text fill="#000000" font-family="sans-serif" font-size="13" lengthAdjust="spacingAndGlyphs" textLength="284" x="488" y="652.52">normalized mode / units / generator payload</text><!--MD5=[0560ae9cd5c0c0e7a907ace4c77989fe]
link RechargeBuilder to HydroForcing--><path d="M912.99,602.2231 C924.22,610.1031 934.54,619.9431 941,631.9531 C952.39,653.1331 938.27,676.3731 921.48,694.1931 " fill="none" id="RechargeBuilder-&gt;HydroForcing" style="stroke: #A80036; stroke-width: 1.0;"/><polygon fill="#A80036" points="917.64,698.1431,926.7888,694.4962,921.1323,694.5649,921.0636,688.9085,917.64,698.1431" style="stroke: #A80036; stroke-width: 1.0;"/><text fill="#000000" font-family="sans-serif" font-size="13" lengthAdjust="spacingAndGlyphs" textLength="203" x="947" y="652.52">build_hydrological_step_series()</text><!--MD5=[1a6cfe0be4ccf27c59d38516cccefff0]
link HydroForcing to RechargeBuilder--><path d="M820.39,698.3031 C806.28,689.5931 793.17,678.3131 785,663.9531 C777.97,651.5931 778.72,644.7131 785,631.9531 C789.97,621.8531 797.76,613.0731 806.41,605.6531 " fill="none" id="HydroForcing-&gt;RechargeBuilder" style="stroke: #A80036; stroke-width: 1.0;"/><polygon fill="#A80036" points="810.72,602.1331,801.223,604.7422,806.8521,605.3016,806.2926,610.9308,810.72,602.1331" style="stroke: #A80036; stroke-width: 1.0;"/><text fill="#000000" font-family="sans-serif" font-size="13" lengthAdjust="spacingAndGlyphs" textLength="146" x="786" y="652.52">fine synthetic chronicle</text><!--MD5=[04385227814a8b600e7e86f29522b4bb]
link RechargeBuilder to ForcingSeries--><path d="M961.22,587.2231 C1035.08,596.4031 1126.59,611.4031 1159,631.9531 C1180.76,645.7531 1197.54,669.5431 1208.74,689.4731 " fill="none" id="RechargeBuilder-&gt;ForcingSeries" style="stroke: #A80036; stroke-width: 1.0;"/><polygon fill="#A80036" points="1211.18,693.9231,1210.3439,684.1098,1208.7688,689.5429,1203.3356,687.9678,1211.18,693.9231" style="stroke: #A80036; stroke-width: 1.0;"/><text fill="#000000" font-family="sans-serif" font-size="13" lengthAdjust="spacingAndGlyphs" textLength="108" x="1237" y="645.02">normalize to m/s</text><text fill="#000000" font-family="sans-serif" font-size="13" lengthAdjust="spacingAndGlyphs" textLength="196" x="1193" y="660.1528">and align to simulation periods</text><!--MD5=[6d23fc9786289d4fd52646c8af04357b]
link ForcingSeries to CoverageGuard--><path d="M1222.22,755.9731 C1221.31,770.2231 1220.81,787.4831 1222,802.9531 C1222.68,811.7831 1223.94,821.3131 1225.3,830.0431 " fill="none" id="ForcingSeries-&gt;CoverageGuard" style="stroke: #A80036; stroke-width: 1.0;"/><polygon fill="#A80036" points="1226.16,835.3531,1228.6975,825.8368,1225.3751,830.4151,1220.7967,827.0927,1226.16,835.3531" style="stroke: #A80036; stroke-width: 1.0;"/><text fill="#000000" font-family="sans-serif" font-size="13" lengthAdjust="spacingAndGlyphs" textLength="161" x="1223" y="799.02">recharge coverage check</text><!--MD5=[dd8404cb389dae490b1033c23a8c3e30]
link CoverageGuard to Project--><path d="M1342.34,836.7231 C1349.99,835.3631 1357.6,834.0831 1365,832.9531 C1398.99,827.7631 1649.9,828.4131 1673,802.9531 C1772.39,693.4031 1650.23,589.4931 1531,501.9531 C1509.82,486.4031 1483.88,474.8831 1459.27,466.4931 " fill="none" id="CoverageGuard-&gt;Project" style="stroke: #A80036; stroke-width: 1.0;"/><polygon fill="#A80036" points="1454.37,464.8631,1461.6372,471.5105,1459.112,466.4485,1464.1739,463.9233,1454.37,464.8631" style="stroke: #A80036; stroke-width: 1.0;"/><text fill="#000000" font-family="sans-serif" font-size="13" lengthAdjust="spacingAndGlyphs" textLength="99" x="1695" y="652.52">pass/warn/error</text><!--MD5=[e2a64dff027a356458b8d86918a65320]
link RuntimeState to FlowSolvers--><path d="M1409.14,602.0131 C1414.43,611.1931 1419.98,621.7931 1424,631.9531 C1431.87,651.8231 1437.67,675.1931 1441.48,693.4031 " fill="none" id="RuntimeState-&gt;FlowSolvers" style="stroke: #A80036; stroke-width: 1.0;"/><polygon fill="#A80036" points="1442.5,698.4031,1444.6141,688.7838,1441.4974,693.5047,1436.7766,690.388,1442.5,698.4031" style="stroke: #A80036; stroke-width: 1.0;"/><text fill="#000000" font-family="sans-serif" font-size="13" lengthAdjust="spacingAndGlyphs" textLength="186" x="1434" y="652.52">preprocess options.time_grid</text><!--MD5=[70cfb34950535b711b164a12aec152af]
link FlowSolvers to FlowConfig--><path d="M1443.38,751.6631 C1439.35,780.2931 1432.99,825.4731 1429.87,847.7031 " fill="none" id="FlowSolvers-&gt;FlowConfig" style="stroke: #A80036; stroke-width: 1.0;"/><polygon fill="#A80036" points="1429.14,852.8331,1434.3388,844.4681,1429.8271,847.8806,1426.4147,843.3689,1429.14,852.8331" style="stroke: #A80036; stroke-width: 1.0;"/><text fill="#000000" font-family="sans-serif" font-size="13" lengthAdjust="spacingAndGlyphs" textLength="242" x="1439" y="799.02">read flow_regime / first_period_steady</text><!--MD5=[85792dceb1254a53d0a45a45e345a2f0]
@startuml
title Simulation Time Cycle - Structure Diagram
skinparam componentStyle rectangle

component "Run TOML\n[simulation.time] + [recharge_chronicle]" as RunToml
component "HydroModPyConfig\n(Pydantic tree)" as TypedConfig
component "Time Core\nhydromodpy.core.time.window" as TimeCore
component "Project Facade\nhydromodpy.Project" as Project
component "Runtime State\nsetup.time_grid" as RuntimeState
component "Solver TGrid Sections\nmodflownwt.tgrid / modflow6.tgrid" as SolverTgrid
component "Data Managers Runtime Loader\nruntime_loader" as DataLoader
component "Recharge Chronicle Config\nforcing.recharge_chronicle_config" as RechargeConfig
component "Recharge Chronicle Builder\nforcing.recharge_chronicle" as RechargeBuilder
component "Hydrology Synthetic Forcing\nhydrology.synthetic.forcing" as HydroForcing
component "Coverage Guard\nvalidate_recharge_coverage()" as CoverageGuard
component "Flow Solver Wrappers\nModflow / Modflow6" as FlowSolvers
database "Climatic Forcing Series\nrecharge / runoff" as ForcingSeries

RunToml - -> TypedConfig : load simulation config tree
TypedConfig - -> TimeCore : resolve_simulation_time_window/grid

TimeCore - -> Project : ResolvedSimulationTimeGrid
Project - -> TimeCore : require_flow_simulation_time_grid()
Project - -> RuntimeState : persist canonical grid

Project - -> TimeCore : apply_explicit_time_window_to_tgrids()
TimeCore - -> SolverTgrid : sync nper,lenper,itmuni,genmtd,ntsp,tsmult

Project - -> DataLoader : load_all(run_state)
DataLoader - -> TimeCore : resolve_simulation_time_window_dates()

Project - -> RechargeBuilder : build_recharge_chronicle_payload(..., window)
RunToml - -> RechargeConfig : raw [recharge_chronicle] section
RechargeBuilder - -> RechargeConfig : validate_recharge_chronicle_section()
RechargeConfig - -> RechargeBuilder : normalized mode / units / generator payload
RechargeBuilder - -> HydroForcing : build_hydrological_step_series()
HydroForcing - -> RechargeBuilder : fine synthetic chronicle
RechargeBuilder - -> ForcingSeries : normalize to m/s\nand align to simulation periods
ForcingSeries - -> CoverageGuard : recharge coverage check
CoverageGuard - -> Project : pass/warn/error

RuntimeState - -> FlowSolvers : preprocess options.time_grid
FlowSolvers - -> FlowConfig : read flow_regime / first_period_steady
@enduml

PlantUML version 1.2020.02(Sun Mar 01 10:22:07 UTC 2020)
(GPL source distribution)
Java Runtime: OpenJDK Runtime Environment
JVM: OpenJDK 64-Bit Server VM
Java Version: 17.0.19+10
Operating System: Linux
Default Encoding: UTF-8
Language: en
Country: null
--></g></svg>