<?xml version="1.0" encoding="UTF-8" standalone="no"?><svg xmlns="http://www.w3.org/2000/svg" xmlns:xlink="http://www.w3.org/1999/xlink" contentScriptType="application/ecmascript" contentStyleType="text/css" height="1250px" preserveAspectRatio="none" style="width:644px;height:1250px;" version="1.1" viewBox="0 0 644 1250" width="644px" zoomAndPan="magnify"><defs><filter height="300%" id="f1tty4lzjrnnec" width="300%" x="-1" y="-1"><feGaussianBlur result="blurOut" stdDeviation="2.0"/><feColorMatrix in="blurOut" result="blurOut2" type="matrix" values="0 0 0 0 0 0 0 0 0 0 0 0 0 0 0 0 0 0 .4 0"/><feOffset dx="4.0" dy="4.0" in="blurOut2" result="blurOut3"/><feBlend in="SourceGraphic" in2="blurOut3" mode="normal"/></filter></defs><g><text fill="#000000" font-family="sans-serif" font-size="18" lengthAdjust="spacingAndGlyphs" textLength="348" x="147.25" y="26.708">MeshCatchment Output Layout Activity</text><ellipse cx="308.5" cy="40.9531" fill="#000000" filter="url(#f1tty4lzjrnnec)" rx="10" ry="10" style="stroke: none; stroke-width: 1.0;"/><rect fill="#FEFECE" filter="url(#f1tty4lzjrnnec)" height="47.9375" rx="12.5" ry="12.5" style="stroke: #A80036; stroke-width: 1.5;" width="239" x="189" y="70.9531"/><text fill="#000000" font-family="sans-serif" font-size="12" lengthAdjust="spacingAndGlyphs" textLength="166" x="199" y="92.0918">Resolve output paths from</text><text fill="#000000" font-family="sans-serif" font-size="12" lengthAdjust="spacingAndGlyphs" textLength="219" x="199" y="106.0605">section config + optional overrides</text><polygon fill="#FEFECE" filter="url(#f1tty4lzjrnnec)" points="197.5,138.8906,419.5,138.8906,431.5,150.8906,419.5,162.8906,197.5,162.8906,185.5,150.8906,197.5,138.8906" style="stroke: #A80036; stroke-width: 1.5;"/><text fill="#000000" font-family="sans-serif" font-size="11" lengthAdjust="spacingAndGlyphs" textLength="222" x="197.5" y="154.6987">Dedicated mesh output_layout == flat?</text><text fill="#000000" font-family="sans-serif" font-size="11" lengthAdjust="spacingAndGlyphs" textLength="20" x="165.5" y="148.2964">yes</text><text fill="#000000" font-family="sans-serif" font-size="11" lengthAdjust="spacingAndGlyphs" textLength="51" x="431.5" y="148.2964">standard</text><rect fill="#FEFECE" filter="url(#f1tty4lzjrnnec)" height="47.9375" rx="12.5" ry="12.5" style="stroke: #A80036; stroke-width: 1.5;" width="255" x="48" y="172.8906"/><text fill="#000000" font-family="sans-serif" font-size="12" lengthAdjust="spacingAndGlyphs" textLength="233" x="58" y="194.0293">Create temporary runtime workspace</text><text fill="#000000" font-family="sans-serif" font-size="12" lengthAdjust="spacingAndGlyphs" textLength="235" x="58" y="207.998">under _mesh_runtime/&lt;catch_name&gt;</text><rect fill="#FEFECE" filter="url(#f1tty4lzjrnnec)" height="47.9375" rx="12.5" ry="12.5" style="stroke: #A80036; stroke-width: 1.5;" width="266" x="42.5" y="240.8281"/><text fill="#000000" font-family="sans-serif" font-size="12" lengthAdjust="spacingAndGlyphs" textLength="246" x="52.5" y="261.9668">Write final mesh artifacts directly under</text><text fill="#000000" font-family="sans-serif" font-size="12" lengthAdjust="spacingAndGlyphs" textLength="147" x="52.5" y="275.9355">workspace.project_root</text><rect fill="#FEFECE" filter="url(#f1tty4lzjrnnec)" height="47.9375" rx="12.5" ry="12.5" style="stroke: #A80036; stroke-width: 1.5;" width="217" x="333" y="172.8906"/><text fill="#000000" font-family="sans-serif" font-size="12" lengthAdjust="spacingAndGlyphs" textLength="197" x="343" y="194.0293">Write final mesh artifacts under</text><text fill="#000000" font-family="sans-serif" font-size="12" lengthAdjust="spacingAndGlyphs" textLength="130" x="343" y="207.998">results_stable/mesh/</text><polygon fill="#FEFECE" filter="url(#f1tty4lzjrnnec)" points="308.5,294.7656,320.5,306.7656,308.5,318.7656,296.5,306.7656,308.5,294.7656" style="stroke: #A80036; stroke-width: 1.5;"/><polygon fill="#FEFECE" filter="url(#f1tty4lzjrnnec)" points="260,338.7656,357,338.7656,369,350.7656,357,362.7656,260,362.7656,248,350.7656,260,338.7656" style="stroke: #A80036; stroke-width: 1.5;"/><text fill="#000000" font-family="sans-serif" font-size="11" lengthAdjust="spacingAndGlyphs" textLength="97" x="260" y="354.5737">figures_enabled?</text><text fill="#000000" font-family="sans-serif" font-size="11" lengthAdjust="spacingAndGlyphs" textLength="20" x="228" y="348.1714">yes</text><text fill="#000000" font-family="sans-serif" font-size="11" lengthAdjust="spacingAndGlyphs" textLength="14" x="369" y="348.1714">no</text><rect fill="#FEFECE" filter="url(#f1tty4lzjrnnec)" height="47.9375" rx="12.5" ry="12.5" style="stroke: #A80036; stroke-width: 1.5;" width="208" x="107.75" y="372.7656"/><text fill="#000000" font-family="sans-serif" font-size="12" lengthAdjust="spacingAndGlyphs" textLength="188" x="117.75" y="393.9043">Resolve overview and regional</text><text fill="#000000" font-family="sans-serif" font-size="12" lengthAdjust="spacingAndGlyphs" textLength="76" x="117.75" y="407.873">figure paths</text><rect fill="#FEFECE" filter="url(#f1tty4lzjrnnec)" height="47.9375" rx="12.5" ry="12.5" style="stroke: #A80036; stroke-width: 1.5;" width="206" x="108.75" y="440.7031"/><text fill="#000000" font-family="sans-serif" font-size="12" lengthAdjust="spacingAndGlyphs" textLength="186" x="118.75" y="461.8418">Write PNG figures when paths</text><text fill="#000000" font-family="sans-serif" font-size="12" lengthAdjust="spacingAndGlyphs" textLength="92" x="118.75" y="475.8105">are configured</text><rect fill="#FEFECE" filter="url(#f1tty4lzjrnnec)" height="33.9688" rx="12.5" ry="12.5" style="stroke: #A80036; stroke-width: 1.5;" width="139" x="335.75" y="372.7656"/><text fill="#000000" font-family="sans-serif" font-size="12" lengthAdjust="spacingAndGlyphs" textLength="119" x="345.75" y="393.9043">Skip figure outputs</text><polygon fill="#FEFECE" filter="url(#f1tty4lzjrnnec)" points="308.5,494.6406,320.5,506.6406,308.5,518.6406,296.5,506.6406,308.5,494.6406" style="stroke: #A80036; stroke-width: 1.5;"/><rect fill="#FEFECE" filter="url(#f1tty4lzjrnnec)" height="47.9375" rx="12.5" ry="12.5" style="stroke: #A80036; stroke-width: 1.5;" width="220" x="198.5" y="587.043"/><text fill="#000000" font-family="sans-serif" font-size="12" lengthAdjust="spacingAndGlyphs" textLength="200" x="208.5" y="608.1816">Export exchange bundle next to</text><text fill="#000000" font-family="sans-serif" font-size="12" lengthAdjust="spacingAndGlyphs" textLength="117" x="208.5" y="622.1504">final mesh outputs</text><polygon fill="#FEFECE" filter="url(#f1tty4lzjrnnec)" points="261,538.6406,356,538.6406,368,550.6406,356,562.6406,261,562.6406,249,550.6406,261,538.6406" style="stroke: #A80036; stroke-width: 1.5;"/><text fill="#000000" font-family="sans-serif" font-size="11" lengthAdjust="spacingAndGlyphs" textLength="20" x="312.5" y="572.8511">yes</text><text fill="#000000" font-family="sans-serif" font-size="11" lengthAdjust="spacingAndGlyphs" textLength="95" x="261" y="554.4487">Mesh file exists?</text><polygon fill="#FEFECE" filter="url(#f1tty4lzjrnnec)" points="308.5,654.9805,320.5,666.9805,308.5,678.9805,296.5,666.9805,308.5,654.9805" style="stroke: #A80036; stroke-width: 1.5;"/><polygon fill="#FEFECE" filter="url(#f1tty4lzjrnnec)" points="147.5,698.9805,469.5,698.9805,481.5,710.9805,469.5,722.9805,147.5,722.9805,135.5,710.9805,147.5,698.9805" style="stroke: #A80036; stroke-width: 1.5;"/><text fill="#000000" font-family="sans-serif" font-size="11" lengthAdjust="spacingAndGlyphs" textLength="322" x="147.5" y="714.7886">Dedicated mesh geographic_outputs_mode == cleanup?</text><text fill="#000000" font-family="sans-serif" font-size="11" lengthAdjust="spacingAndGlyphs" textLength="20" x="115.5" y="708.3862">yes</text><text fill="#000000" font-family="sans-serif" font-size="11" lengthAdjust="spacingAndGlyphs" textLength="27" x="481.5" y="708.3862">keep</text><rect fill="#FEFECE" filter="url(#f1tty4lzjrnnec)" height="47.9375" rx="12.5" ry="12.5" style="stroke: #A80036; stroke-width: 1.5;" width="231" x="10" y="732.9805"/><text fill="#000000" font-family="sans-serif" font-size="12" lengthAdjust="spacingAndGlyphs" textLength="208" x="20" y="754.1191">Delete results_stable/geographic</text><text fill="#000000" font-family="sans-serif" font-size="12" lengthAdjust="spacingAndGlyphs" textLength="211" x="20" y="768.0879">and results_stable/demcorrecflow</text><rect fill="#FEFECE" filter="url(#f1tty4lzjrnnec)" height="33.9688" rx="12.5" ry="12.5" style="stroke: #A80036; stroke-width: 1.5;" width="241" x="371" y="732.9805"/><text fill="#000000" font-family="sans-serif" font-size="12" lengthAdjust="spacingAndGlyphs" textLength="221" x="381" y="754.1191">Preserve geographic intermediates</text><polygon fill="#FEFECE" filter="url(#f1tty4lzjrnnec)" points="308.5,786.918,320.5,798.918,308.5,810.918,296.5,798.918,308.5,786.918" style="stroke: #A80036; stroke-width: 1.5;"/><rect fill="#FEFECE" filter="url(#f1tty4lzjrnnec)" height="33.9688" rx="12.5" ry="12.5" style="stroke: #A80036; stroke-width: 1.5;" width="260" x="178.5" y="879.3203"/><text fill="#000000" font-family="sans-serif" font-size="12" lengthAdjust="spacingAndGlyphs" textLength="240" x="188.5" y="900.459">Apply outlet-specific filename patterns</text><rect fill="#FEFECE" filter="url(#f1tty4lzjrnnec)" height="33.9688" rx="12.5" ry="12.5" style="stroke: #A80036; stroke-width: 1.5;" width="274" x="171.5" y="948.2891"/><text fill="#000000" font-family="sans-serif" font-size="12" lengthAdjust="spacingAndGlyphs" textLength="254" x="181.5" y="969.4277">Append one manifest CSV row per outlet</text><polygon fill="#FEFECE" filter="url(#f1tty4lzjrnnec)" points="271.5,830.918,345.5,830.918,357.5,842.918,345.5,854.918,271.5,854.918,259.5,842.918,271.5,830.918" style="stroke: #A80036; stroke-width: 1.5;"/><text fill="#000000" font-family="sans-serif" font-size="11" lengthAdjust="spacingAndGlyphs" textLength="20" x="312.5" y="865.1284">yes</text><text fill="#000000" font-family="sans-serif" font-size="11" lengthAdjust="spacingAndGlyphs" textLength="74" x="271.5" y="846.7261">Batch mode?</text><polygon fill="#FEFECE" filter="url(#f1tty4lzjrnnec)" points="308.5,1002.2578,320.5,1014.2578,308.5,1026.2578,296.5,1014.2578,308.5,1002.2578" style="stroke: #A80036; stroke-width: 1.5;"/><rect fill="#FEFECE" filter="url(#f1tty4lzjrnnec)" height="33.9688" rx="12.5" ry="12.5" style="stroke: #A80036; stroke-width: 1.5;" width="282" x="167.5" y="1094.6602"/><text fill="#000000" font-family="sans-serif" font-size="12" lengthAdjust="spacingAndGlyphs" textLength="262" x="177.5" y="1115.7988">Delete temporary runtime workspace root</text><polygon fill="#FEFECE" filter="url(#f1tty4lzjrnnec)" points="260.5,1046.2578,356.5,1046.2578,368.5,1058.2578,356.5,1070.2578,260.5,1070.2578,248.5,1058.2578,260.5,1046.2578" style="stroke: #A80036; stroke-width: 1.5;"/><text fill="#000000" font-family="sans-serif" font-size="11" lengthAdjust="spacingAndGlyphs" textLength="20" x="312.5" y="1080.4683">yes</text><text fill="#000000" font-family="sans-serif" font-size="11" lengthAdjust="spacingAndGlyphs" textLength="96" x="260.5" y="1062.0659">Flat layout used?</text><polygon fill="#FEFECE" filter="url(#f1tty4lzjrnnec)" points="308.5,1148.6289,320.5,1160.6289,308.5,1172.6289,296.5,1160.6289,308.5,1148.6289" style="stroke: #A80036; stroke-width: 1.5;"/><path d="M339.5,1182.6289 L339.5,1206.3281 L319.5,1210.3281 L339.5,1214.3281 L339.5,1238.0273 A0,0 0 0 0 339.5,1238.0273 L632.5,1238.0273 A0,0 0 0 0 632.5,1238.0273 L632.5,1192.6289 L622.5,1182.6289 L339.5,1182.6289 A0,0 0 0 0 339.5,1182.6289 " fill="#FBFB77" filter="url(#f1tty4lzjrnnec)" style="stroke: #A80036; stroke-width: 1.0;"/><path d="M622.5,1182.6289 L622.5,1192.6289 L632.5,1192.6289 L622.5,1182.6289 " fill="#FBFB77" style="stroke: #A80036; stroke-width: 1.0;"/><text fill="#000000" font-family="sans-serif" font-size="13" lengthAdjust="spacingAndGlyphs" textLength="239" x="345.5" y="1199.6958">The full simulation workflow keeps the</text><text fill="#000000" font-family="sans-serif" font-size="13" lengthAdjust="spacingAndGlyphs" textLength="259" x="345.5" y="1214.8286">standard workspace layout and does not</text><text fill="#000000" font-family="sans-serif" font-size="13" lengthAdjust="spacingAndGlyphs" textLength="272" x="345.5" y="1229.9614">apply the dedicated mesh cleanup branch.</text><ellipse cx="308.5" cy="1210.3281" fill="#FFFFFF" filter="url(#f1tty4lzjrnnec)" rx="11" ry="11" style="stroke: #000000; stroke-width: 1.0;"/><ellipse cx="308.5" cy="1210.3281" fill="#000000" rx="6" ry="6" style="stroke: #7F7F7F; stroke-width: 1.0;"/><line style="stroke: #A80036; stroke-width: 1.5;" x1="308.5" x2="308.5" y1="50.9531" y2="70.9531"/><polygon fill="#A80036" points="304.5,60.9531,308.5,70.9531,312.5,60.9531,308.5,64.9531" style="stroke: #A80036; stroke-width: 1.0;"/><line style="stroke: #A80036; stroke-width: 1.5;" x1="175.5" x2="175.5" y1="220.8281" y2="240.8281"/><polygon fill="#A80036" points="171.5,230.8281,175.5,240.8281,179.5,230.8281,175.5,234.8281" style="stroke: #A80036; stroke-width: 1.0;"/><line style="stroke: #A80036; stroke-width: 1.5;" x1="185.5" x2="175.5" y1="150.8906" y2="150.8906"/><line style="stroke: #A80036; stroke-width: 1.5;" x1="175.5" x2="175.5" y1="150.8906" y2="172.8906"/><polygon fill="#A80036" points="171.5,162.8906,175.5,172.8906,179.5,162.8906,175.5,166.8906" style="stroke: #A80036; stroke-width: 1.0;"/><line style="stroke: #A80036; stroke-width: 1.5;" x1="431.5" x2="441.5" y1="150.8906" y2="150.8906"/><line style="stroke: #A80036; stroke-width: 1.5;" x1="441.5" x2="441.5" y1="150.8906" y2="172.8906"/><polygon fill="#A80036" points="437.5,162.8906,441.5,172.8906,445.5,162.8906,441.5,166.8906" style="stroke: #A80036; stroke-width: 1.0;"/><line style="stroke: #A80036; stroke-width: 1.5;" x1="175.5" x2="175.5" y1="288.7656" y2="306.7656"/><line style="stroke: #A80036; stroke-width: 1.5;" x1="175.5" x2="296.5" y1="306.7656" y2="306.7656"/><polygon fill="#A80036" points="286.5,302.7656,296.5,306.7656,286.5,310.7656,290.5,306.7656" style="stroke: #A80036; stroke-width: 1.0;"/><line style="stroke: #A80036; stroke-width: 1.5;" x1="441.5" x2="441.5" y1="220.8281" y2="306.7656"/><line style="stroke: #A80036; stroke-width: 1.5;" x1="441.5" x2="320.5" y1="306.7656" y2="306.7656"/><polygon fill="#A80036" points="330.5,302.7656,320.5,306.7656,330.5,310.7656,326.5,306.7656" style="stroke: #A80036; stroke-width: 1.0;"/><line style="stroke: #A80036; stroke-width: 1.5;" x1="308.5" x2="308.5" y1="118.8906" y2="138.8906"/><polygon fill="#A80036" points="304.5,128.8906,308.5,138.8906,312.5,128.8906,308.5,132.8906" style="stroke: #A80036; stroke-width: 1.0;"/><line style="stroke: #A80036; stroke-width: 1.5;" x1="211.75" x2="211.75" y1="420.7031" y2="440.7031"/><polygon fill="#A80036" points="207.75,430.7031,211.75,440.7031,215.75,430.7031,211.75,434.7031" style="stroke: #A80036; stroke-width: 1.0;"/><line style="stroke: #A80036; stroke-width: 1.5;" x1="248" x2="211.75" y1="350.7656" y2="350.7656"/><line style="stroke: #A80036; stroke-width: 1.5;" x1="211.75" x2="211.75" y1="350.7656" y2="372.7656"/><polygon fill="#A80036" points="207.75,362.7656,211.75,372.7656,215.75,362.7656,211.75,366.7656" style="stroke: #A80036; stroke-width: 1.0;"/><line style="stroke: #A80036; stroke-width: 1.5;" x1="369" x2="405.25" y1="350.7656" y2="350.7656"/><line style="stroke: #A80036; stroke-width: 1.5;" x1="405.25" x2="405.25" y1="350.7656" y2="372.7656"/><polygon fill="#A80036" points="401.25,362.7656,405.25,372.7656,409.25,362.7656,405.25,366.7656" style="stroke: #A80036; stroke-width: 1.0;"/><line style="stroke: #A80036; stroke-width: 1.5;" x1="211.75" x2="211.75" y1="488.6406" y2="506.6406"/><line style="stroke: #A80036; stroke-width: 1.5;" x1="211.75" x2="296.5" y1="506.6406" y2="506.6406"/><polygon fill="#A80036" points="286.5,502.6406,296.5,506.6406,286.5,510.6406,290.5,506.6406" style="stroke: #A80036; stroke-width: 1.0;"/><line style="stroke: #A80036; stroke-width: 1.5;" x1="405.25" x2="405.25" y1="406.7344" y2="506.6406"/><line style="stroke: #A80036; stroke-width: 1.5;" x1="405.25" x2="320.5" y1="506.6406" y2="506.6406"/><polygon fill="#A80036" points="330.5,502.6406,320.5,506.6406,330.5,510.6406,326.5,506.6406" style="stroke: #A80036; stroke-width: 1.0;"/><line style="stroke: #A80036; stroke-width: 1.5;" x1="308.5" x2="308.5" y1="318.7656" y2="338.7656"/><polygon fill="#A80036" points="304.5,328.7656,308.5,338.7656,312.5,328.7656,308.5,332.7656" style="stroke: #A80036; stroke-width: 1.0;"/><line style="stroke: #A80036; stroke-width: 1.5;" x1="308.5" x2="308.5" y1="562.6406" y2="587.043"/><polygon fill="#A80036" points="304.5,577.043,308.5,587.043,312.5,577.043,308.5,581.043" style="stroke: #A80036; stroke-width: 1.0;"/><line style="stroke: #A80036; stroke-width: 1.5;" x1="368" x2="428.5" y1="550.6406" y2="550.6406"/><polygon fill="#A80036" points="424.5,601.0117,428.5,611.0117,432.5,601.0117,428.5,605.0117" style="stroke: #A80036; stroke-width: 1.5;"/><line style="stroke: #A80036; stroke-width: 1.5;" x1="428.5" x2="428.5" y1="550.6406" y2="666.9805"/><line style="stroke: #A80036; stroke-width: 1.5;" x1="428.5" x2="320.5" y1="666.9805" y2="666.9805"/><polygon fill="#A80036" points="330.5,662.9805,320.5,666.9805,330.5,670.9805,326.5,666.9805" style="stroke: #A80036; stroke-width: 1.0;"/><line style="stroke: #A80036; stroke-width: 1.5;" x1="308.5" x2="308.5" y1="634.9805" y2="654.9805"/><polygon fill="#A80036" points="304.5,644.9805,308.5,654.9805,312.5,644.9805,308.5,648.9805" style="stroke: #A80036; stroke-width: 1.0;"/><line style="stroke: #A80036; stroke-width: 1.5;" x1="308.5" x2="308.5" y1="518.6406" y2="538.6406"/><polygon fill="#A80036" points="304.5,528.6406,308.5,538.6406,312.5,528.6406,308.5,532.6406" style="stroke: #A80036; stroke-width: 1.0;"/><line style="stroke: #A80036; stroke-width: 1.5;" x1="135.5" x2="125.5" y1="710.9805" y2="710.9805"/><line style="stroke: #A80036; stroke-width: 1.5;" x1="125.5" x2="125.5" y1="710.9805" y2="732.9805"/><polygon fill="#A80036" points="121.5,722.9805,125.5,732.9805,129.5,722.9805,125.5,726.9805" style="stroke: #A80036; stroke-width: 1.0;"/><line style="stroke: #A80036; stroke-width: 1.5;" x1="481.5" x2="491.5" y1="710.9805" y2="710.9805"/><line style="stroke: #A80036; stroke-width: 1.5;" x1="491.5" x2="491.5" y1="710.9805" y2="732.9805"/><polygon fill="#A80036" points="487.5,722.9805,491.5,732.9805,495.5,722.9805,491.5,726.9805" style="stroke: #A80036; stroke-width: 1.0;"/><line style="stroke: #A80036; stroke-width: 1.5;" x1="125.5" x2="125.5" y1="780.918" y2="798.918"/><line style="stroke: #A80036; stroke-width: 1.5;" x1="125.5" x2="296.5" y1="798.918" y2="798.918"/><polygon fill="#A80036" points="286.5,794.918,296.5,798.918,286.5,802.918,290.5,798.918" style="stroke: #A80036; stroke-width: 1.0;"/><line style="stroke: #A80036; stroke-width: 1.5;" x1="491.5" x2="491.5" y1="766.9492" y2="798.918"/><line style="stroke: #A80036; stroke-width: 1.5;" x1="491.5" x2="320.5" y1="798.918" y2="798.918"/><polygon fill="#A80036" points="330.5,794.918,320.5,798.918,330.5,802.918,326.5,798.918" style="stroke: #A80036; stroke-width: 1.0;"/><line style="stroke: #A80036; stroke-width: 1.5;" x1="308.5" x2="308.5" y1="678.9805" y2="698.9805"/><polygon fill="#A80036" points="304.5,688.9805,308.5,698.9805,312.5,688.9805,308.5,692.9805" style="stroke: #A80036; stroke-width: 1.0;"/><line style="stroke: #A80036; stroke-width: 1.5;" x1="308.5" x2="308.5" y1="913.2891" y2="948.2891"/><polygon fill="#A80036" points="304.5,938.2891,308.5,948.2891,312.5,938.2891,308.5,942.2891" style="stroke: #A80036; stroke-width: 1.0;"/><line style="stroke: #A80036; stroke-width: 1.5;" x1="308.5" x2="308.5" y1="854.918" y2="879.3203"/><polygon fill="#A80036" points="304.5,869.3203,308.5,879.3203,312.5,869.3203,308.5,873.3203" style="stroke: #A80036; stroke-width: 1.0;"/><line style="stroke: #A80036; stroke-width: 1.5;" x1="357.5" x2="455.5" y1="842.918" y2="842.918"/><polygon fill="#A80036" points="451.5,920.7891,455.5,930.7891,459.5,920.7891,455.5,924.7891" style="stroke: #A80036; stroke-width: 1.5;"/><line style="stroke: #A80036; stroke-width: 1.5;" x1="455.5" x2="455.5" y1="842.918" y2="1014.2578"/><line style="stroke: #A80036; stroke-width: 1.5;" x1="455.5" x2="320.5" y1="1014.2578" y2="1014.2578"/><polygon fill="#A80036" points="330.5,1010.2578,320.5,1014.2578,330.5,1018.2578,326.5,1014.2578" style="stroke: #A80036; stroke-width: 1.0;"/><line style="stroke: #A80036; stroke-width: 1.5;" x1="308.5" x2="308.5" y1="982.2578" y2="1002.2578"/><polygon fill="#A80036" points="304.5,992.2578,308.5,1002.2578,312.5,992.2578,308.5,996.2578" style="stroke: #A80036; stroke-width: 1.0;"/><line style="stroke: #A80036; stroke-width: 1.5;" x1="308.5" x2="308.5" y1="810.918" y2="830.918"/><polygon fill="#A80036" points="304.5,820.918,308.5,830.918,312.5,820.918,308.5,824.918" style="stroke: #A80036; stroke-width: 1.0;"/><line style="stroke: #A80036; stroke-width: 1.5;" x1="308.5" x2="308.5" y1="1070.2578" y2="1094.6602"/><polygon fill="#A80036" points="304.5,1084.6602,308.5,1094.6602,312.5,1084.6602,308.5,1088.6602" style="stroke: #A80036; stroke-width: 1.0;"/><line style="stroke: #A80036; stroke-width: 1.5;" x1="368.5" x2="459.5" y1="1058.2578" y2="1058.2578"/><polygon fill="#A80036" points="455.5,1101.6445,459.5,1111.6445,463.5,1101.6445,459.5,1105.6445" style="stroke: #A80036; stroke-width: 1.5;"/><line style="stroke: #A80036; stroke-width: 1.5;" x1="459.5" x2="459.5" y1="1058.2578" y2="1160.6289"/><line style="stroke: #A80036; stroke-width: 1.5;" x1="459.5" x2="320.5" y1="1160.6289" y2="1160.6289"/><polygon fill="#A80036" points="330.5,1156.6289,320.5,1160.6289,330.5,1164.6289,326.5,1160.6289" style="stroke: #A80036; stroke-width: 1.0;"/><line style="stroke: #A80036; stroke-width: 1.5;" x1="308.5" x2="308.5" y1="1128.6289" y2="1148.6289"/><polygon fill="#A80036" points="304.5,1138.6289,308.5,1148.6289,312.5,1138.6289,308.5,1142.6289" style="stroke: #A80036; stroke-width: 1.0;"/><line style="stroke: #A80036; stroke-width: 1.5;" x1="308.5" x2="308.5" y1="1026.2578" y2="1046.2578"/><polygon fill="#A80036" points="304.5,1036.2578,308.5,1046.2578,312.5,1036.2578,308.5,1040.2578" style="stroke: #A80036; stroke-width: 1.0;"/><line style="stroke: #A80036; stroke-width: 1.5;" x1="308.5" x2="308.5" y1="1172.6289" y2="1199.3281"/><polygon fill="#A80036" points="304.5,1189.3281,308.5,1199.3281,312.5,1189.3281,308.5,1193.3281" style="stroke: #A80036; stroke-width: 1.0;"/><!--MD5=[f9a45128f3213b5eb4c758f71bdd6020]
@startuml
title MeshCatchment Output Layout Activity

start

:Resolve output paths from\nsection config + optional overrides;

if (Dedicated mesh output_layout == flat?) then (yes)
  :Create temporary runtime workspace\nunder _mesh_runtime/<catch_name>;
  :Write final mesh artifacts directly under\nworkspace.project_root;
else (standard)
  :Write final mesh artifacts under\nresults_stable/mesh/;
endif

if (figures_enabled?) then (yes)
  :Resolve overview and regional\nfigure paths;
  :Write PNG figures when paths\nare configured;
else (no)
  :Skip figure outputs;
endif

if (Mesh file exists?) then (yes)
  :Export exchange bundle next to\nfinal mesh outputs;
endif

if (Dedicated mesh geographic_outputs_mode == cleanup?) then (yes)
  :Delete results_stable/geographic\nand results_stable/demcorrecflow;
else (keep)
  :Preserve geographic intermediates;
endif

if (Batch mode?) then (yes)
  :Apply outlet-specific filename patterns;
  :Append one manifest CSV row per outlet;
endif

if (Flat layout used?) then (yes)
  :Delete temporary runtime workspace root;
endif

stop

note right
The full simulation workflow keeps the
standard workspace layout and does not
apply the dedicated mesh cleanup branch.
end note
@enduml

PlantUML version 1.2020.02(Sun Mar 01 10:22:07 UTC 2020)
(GPL source distribution)
Java Runtime: OpenJDK Runtime Environment
JVM: OpenJDK 64-Bit Server VM
Java Version: 17.0.20+8
Operating System: Linux
Default Encoding: UTF-8
Language: en
Country: null
--></g></svg>