<?xml version="1.0" encoding="UTF-8" standalone="no"?><svg xmlns="http://www.w3.org/2000/svg" xmlns:xlink="http://www.w3.org/1999/xlink" contentScriptType="application/ecmascript" contentStyleType="text/css" height="689px" preserveAspectRatio="none" style="width:1321px;height:689px;" version="1.1" viewBox="0 0 1321 689" width="1321px" zoomAndPan="magnify"><defs><filter height="300%" id="f11iyw87htf7mn" width="300%" x="-1" y="-1"><feGaussianBlur result="blurOut" stdDeviation="2.0"/><feColorMatrix in="blurOut" result="blurOut2" type="matrix" values="0 0 0 0 0 0 0 0 0 0 0 0 0 0 0 0 0 0 .4 0"/><feOffset dx="4.0" dy="4.0" in="blurOut2" result="blurOut3"/><feBlend in="SourceGraphic" in2="blurOut3" mode="normal"/></filter></defs><g><text fill="#000000" font-family="sans-serif" font-size="18" lengthAdjust="spacingAndGlyphs" textLength="327" x="503" y="16.708">Boussinesq Solver - Package Context</text><!--MD5=[91c043391605f0bbc36c648123f05f04]
cluster process--><polygon fill="#FFFFFF" filter="url(#f11iyw87htf7mn)" points="220,47.9531,290,47.9531,297,70.25,312,70.25,312,146.9531,220,146.9531,220,47.9531" style="stroke: #000000; stroke-width: 1.5;"/><line style="stroke: #000000; stroke-width: 1.5;" x1="220" x2="297" y1="70.25" y2="70.25"/><text fill="#000000" font-family="sans-serif" font-size="14" font-weight="bold" lengthAdjust="spacingAndGlyphs" textLength="64" x="224" y="62.9482">process</text><!--MD5=[e0671919a9343038b83af4c43baf4bae]
cluster hydromodpy.solver.boussinesq--><polygon fill="#FFFFFF" filter="url(#f11iyw87htf7mn)" points="22,201.4531,277,201.4531,284,223.75,766,223.75,766,677.9531,22,677.9531,22,201.4531" style="stroke: #000000; stroke-width: 1.5;"/><line style="stroke: #000000; stroke-width: 1.5;" x1="22" x2="284" y1="223.75" y2="223.75"/><text fill="#000000" font-family="sans-serif" font-size="14" font-weight="bold" lengthAdjust="spacingAndGlyphs" textLength="249" x="26" y="216.4482">hydromodpy.solver.boussinesq</text><!--MD5=[9fb8e4fb9c65ad64d8efd381d4cb56d4]
cluster runtime engines--><polygon fill="#FFFFFF" filter="url(#f11iyw87htf7mn)" points="336,44.9531,471,44.9531,478,67.25,1299,67.25,1299,149.9531,336,149.9531,336,44.9531" style="stroke: #000000; stroke-width: 1.5;"/><line style="stroke: #000000; stroke-width: 1.5;" x1="336" x2="478" y1="67.25" y2="67.25"/><text fill="#000000" font-family="sans-serif" font-size="14" font-weight="bold" lengthAdjust="spacingAndGlyphs" textLength="129" x="340" y="59.9482">runtime engines</text><!--MD5=[49843e001dfdeb79de7734326ddc8639]
class Flow--><rect fill="#FEFECE" filter="url(#f11iyw87htf7mn)" height="48" id="Flow" style="stroke: #A80036; stroke-width: 1.5;" width="59" x="236.5" y="82.9531"/><ellipse cx="251.5" cy="98.9531" fill="#ADD1B2" rx="11" ry="11" style="stroke: #A80036; stroke-width: 1.0;"/><path d="M254.4688,104.5938 Q253.8906,104.8906 253.25,105.0313 Q252.6094,105.1875 251.9063,105.1875 Q249.4063,105.1875 248.0781,103.5469 Q246.7656,101.8906 246.7656,98.7656 Q246.7656,95.6406 248.0781,93.9844 Q249.4063,92.3281 251.9063,92.3281 Q252.6094,92.3281 253.25,92.4844 Q253.9063,92.6406 254.4688,92.9375 L254.4688,95.6563 Q253.8438,95.0781 253.25,94.8125 Q252.6563,94.5313 252.0313,94.5313 Q250.6875,94.5313 250,95.6094 Q249.3125,96.6719 249.3125,98.7656 Q249.3125,100.8594 250,101.9375 Q250.6875,103 252.0313,103 Q252.6563,103 253.25,102.7344 Q253.8438,102.4531 254.4688,101.875 L254.4688,104.5938 Z "/><text fill="#000000" font-family="sans-serif" font-size="12" lengthAdjust="spacingAndGlyphs" textLength="27" x="265.5" y="103.1074">Flow</text><line style="stroke: #A80036; stroke-width: 1.5;" x1="237.5" x2="294.5" y1="114.9531" y2="114.9531"/><line style="stroke: #A80036; stroke-width: 1.5;" x1="237.5" x2="294.5" y1="122.9531" y2="122.9531"/><!--MD5=[01bfd1063615e6f243199adcb2c4b090]
class Boussinesq--><rect fill="#FEFECE" filter="url(#f11iyw87htf7mn)" height="48" id="Boussinesq" style="stroke: #A80036; stroke-width: 1.5;" width="104" x="243" y="239.4531"/><ellipse cx="258" cy="255.4531" fill="#ADD1B2" rx="11" ry="11" style="stroke: #A80036; stroke-width: 1.0;"/><path d="M260.9688,261.0938 Q260.3906,261.3906 259.75,261.5313 Q259.1094,261.6875 258.4063,261.6875 Q255.9063,261.6875 254.5781,260.0469 Q253.2656,258.3906 253.2656,255.2656 Q253.2656,252.1406 254.5781,250.4844 Q255.9063,248.8281 258.4063,248.8281 Q259.1094,248.8281 259.75,248.9844 Q260.4063,249.1406 260.9688,249.4375 L260.9688,252.1563 Q260.3438,251.5781 259.75,251.3125 Q259.1563,251.0313 258.5313,251.0313 Q257.1875,251.0313 256.5,252.1094 Q255.8125,253.1719 255.8125,255.2656 Q255.8125,257.3594 256.5,258.4375 Q257.1875,259.5 258.5313,259.5 Q259.1563,259.5 259.75,259.2344 Q260.3438,258.9531 260.9688,258.375 L260.9688,261.0938 Z "/><text fill="#000000" font-family="sans-serif" font-size="12" lengthAdjust="spacingAndGlyphs" textLength="72" x="272" y="259.6074">Boussinesq</text><line style="stroke: #A80036; stroke-width: 1.5;" x1="244" x2="346" y1="271.4531" y2="271.4531"/><line style="stroke: #A80036; stroke-width: 1.5;" x1="244" x2="346" y1="279.4531" y2="279.4531"/><!--MD5=[b249186ada15d23cebbc9c7437b3791c]
class BoussinesqMesh--><rect fill="#FEFECE" filter="url(#f11iyw87htf7mn)" height="48" id="BoussinesqMesh" style="stroke: #A80036; stroke-width: 1.5;" width="137" x="38.5" y="402.4531"/><ellipse cx="53.5" cy="418.4531" fill="#ADD1B2" rx="11" ry="11" style="stroke: #A80036; stroke-width: 1.0;"/><path d="M56.4688,424.0938 Q55.8906,424.3906 55.25,424.5313 Q54.6094,424.6875 53.9063,424.6875 Q51.4063,424.6875 50.0781,423.0469 Q48.7656,421.3906 48.7656,418.2656 Q48.7656,415.1406 50.0781,413.4844 Q51.4063,411.8281 53.9063,411.8281 Q54.6094,411.8281 55.25,411.9844 Q55.9063,412.1406 56.4688,412.4375 L56.4688,415.1563 Q55.8438,414.5781 55.25,414.3125 Q54.6563,414.0313 54.0313,414.0313 Q52.6875,414.0313 52,415.1094 Q51.3125,416.1719 51.3125,418.2656 Q51.3125,420.3594 52,421.4375 Q52.6875,422.5 54.0313,422.5 Q54.6563,422.5 55.25,422.2344 Q55.8438,421.9531 56.4688,421.375 L56.4688,424.0938 Z "/><text fill="#000000" font-family="sans-serif" font-size="12" lengthAdjust="spacingAndGlyphs" textLength="105" x="67.5" y="422.6074">BoussinesqMesh</text><line style="stroke: #A80036; stroke-width: 1.5;" x1="39.5" x2="174.5" y1="434.4531" y2="434.4531"/><line style="stroke: #A80036; stroke-width: 1.5;" x1="39.5" x2="174.5" y1="442.4531" y2="442.4531"/><!--MD5=[6f9b04c20087bccd6d75c6dd1c634e10]
class BoussinesqState--><rect fill="#FEFECE" filter="url(#f11iyw87htf7mn)" height="48" id="BoussinesqState" style="stroke: #A80036; stroke-width: 1.5;" width="138" x="211" y="402.4531"/><ellipse cx="226" cy="418.4531" fill="#ADD1B2" rx="11" ry="11" style="stroke: #A80036; stroke-width: 1.0;"/><path d="M228.9688,424.0938 Q228.3906,424.3906 227.75,424.5313 Q227.1094,424.6875 226.4063,424.6875 Q223.9063,424.6875 222.5781,423.0469 Q221.2656,421.3906 221.2656,418.2656 Q221.2656,415.1406 222.5781,413.4844 Q223.9063,411.8281 226.4063,411.8281 Q227.1094,411.8281 227.75,411.9844 Q228.4063,412.1406 228.9688,412.4375 L228.9688,415.1563 Q228.3438,414.5781 227.75,414.3125 Q227.1563,414.0313 226.5313,414.0313 Q225.1875,414.0313 224.5,415.1094 Q223.8125,416.1719 223.8125,418.2656 Q223.8125,420.3594 224.5,421.4375 Q225.1875,422.5 226.5313,422.5 Q227.1563,422.5 227.75,422.2344 Q228.3438,421.9531 228.9688,421.375 L228.9688,424.0938 Z "/><text fill="#000000" font-family="sans-serif" font-size="12" lengthAdjust="spacingAndGlyphs" textLength="106" x="240" y="422.6074">BoussinesqState</text><line style="stroke: #A80036; stroke-width: 1.5;" x1="212" x2="348" y1="434.4531" y2="434.4531"/><line style="stroke: #A80036; stroke-width: 1.5;" x1="212" x2="348" y1="442.4531" y2="442.4531"/><!--MD5=[3c6e17cc512a74f072e04b99ecfcb1c4]
class AssemblyModule--><rect fill="#FEFECE" filter="url(#f11iyw87htf7mn)" height="53.9375" id="AssemblyModule" style="stroke: #A80036; stroke-width: 1.5;" width="108" x="642" y="236.4531"/><ellipse cx="657" cy="255.4219" fill="#ADD1B2" rx="11" ry="11" style="stroke: #A80036; stroke-width: 1.0;"/><path d="M659.9688,261.0625 Q659.3906,261.3594 658.75,261.5 Q658.1094,261.6563 657.4063,261.6563 Q654.9063,261.6563 653.5781,260.0156 Q652.2656,258.3594 652.2656,255.2344 Q652.2656,252.1094 653.5781,250.4531 Q654.9063,248.7969 657.4063,248.7969 Q658.1094,248.7969 658.75,248.9531 Q659.4063,249.1094 659.9688,249.4063 L659.9688,252.125 Q659.3438,251.5469 658.75,251.2813 Q658.1563,251 657.5313,251 Q656.1875,251 655.5,252.0781 Q654.8125,253.1406 654.8125,255.2344 Q654.8125,257.3281 655.5,258.4063 Q656.1875,259.4688 657.5313,259.4688 Q658.1563,259.4688 658.75,259.2031 Q659.3438,258.9219 659.9688,258.3438 L659.9688,261.0625 Z "/><text fill="#000000" font-family="sans-serif" font-size="12" font-style="italic" lengthAdjust="spacingAndGlyphs" textLength="60" x="679" y="252.5918">«module»</text><text fill="#000000" font-family="sans-serif" font-size="12" lengthAdjust="spacingAndGlyphs" textLength="76" x="671" y="266.5605">assembly.py</text><line style="stroke: #A80036; stroke-width: 1.5;" x1="643" x2="749" y1="274.3906" y2="274.3906"/><line style="stroke: #A80036; stroke-width: 1.5;" x1="643" x2="749" y1="282.3906" y2="282.3906"/><!--MD5=[d26dc5fa7cbd2f2be0ad4b56ffbb22dd]
class RuntimeSelection--><rect fill="#FEFECE" filter="url(#f11iyw87htf7mn)" height="53.9375" id="RuntimeSelection" style="stroke: #A80036; stroke-width: 1.5;" width="161" x="384.5" y="399.4531"/><ellipse cx="399.5" cy="418.4219" fill="#ADD1B2" rx="11" ry="11" style="stroke: #A80036; stroke-width: 1.0;"/><path d="M402.4688,424.0625 Q401.8906,424.3594 401.25,424.5 Q400.6094,424.6563 399.9063,424.6563 Q397.4063,424.6563 396.0781,423.0156 Q394.7656,421.3594 394.7656,418.2344 Q394.7656,415.1094 396.0781,413.4531 Q397.4063,411.7969 399.9063,411.7969 Q400.6094,411.7969 401.25,411.9531 Q401.9063,412.1094 402.4688,412.4063 L402.4688,415.125 Q401.8438,414.5469 401.25,414.2813 Q400.6563,414 400.0313,414 Q398.6875,414 398,415.0781 Q397.3125,416.1406 397.3125,418.2344 Q397.3125,420.3281 398,421.4063 Q398.6875,422.4688 400.0313,422.4688 Q400.6563,422.4688 401.25,422.2031 Q401.8438,421.9219 402.4688,421.3438 L402.4688,424.0625 Z "/><text fill="#000000" font-family="sans-serif" font-size="12" font-style="italic" lengthAdjust="spacingAndGlyphs" textLength="60" x="448" y="415.5918">«module»</text><text fill="#000000" font-family="sans-serif" font-size="12" lengthAdjust="spacingAndGlyphs" textLength="129" x="413.5" y="429.5605">runtime_selection.py</text><line style="stroke: #A80036; stroke-width: 1.5;" x1="385.5" x2="544.5" y1="437.3906" y2="437.3906"/><line style="stroke: #A80036; stroke-width: 1.5;" x1="385.5" x2="544.5" y1="445.3906" y2="445.3906"/><!--MD5=[0bc0518ddc7d804098f3b4dbaf9a1898]
class RuntimeContract--><rect fill="#FEFECE" filter="url(#f11iyw87htf7mn)" height="53.9375" id="RuntimeContract" style="stroke: #A80036; stroke-width: 1.5;" width="157" x="580.5" y="399.4531"/><ellipse cx="595.5" cy="418.4219" fill="#ADD1B2" rx="11" ry="11" style="stroke: #A80036; stroke-width: 1.0;"/><path d="M598.4688,424.0625 Q597.8906,424.3594 597.25,424.5 Q596.6094,424.6563 595.9063,424.6563 Q593.4063,424.6563 592.0781,423.0156 Q590.7656,421.3594 590.7656,418.2344 Q590.7656,415.1094 592.0781,413.4531 Q593.4063,411.7969 595.9063,411.7969 Q596.6094,411.7969 597.25,411.9531 Q597.9063,412.1094 598.4688,412.4063 L598.4688,415.125 Q597.8438,414.5469 597.25,414.2813 Q596.6563,414 596.0313,414 Q594.6875,414 594,415.0781 Q593.3125,416.1406 593.3125,418.2344 Q593.3125,420.3281 594,421.4063 Q594.6875,422.4688 596.0313,422.4688 Q596.6563,422.4688 597.25,422.2031 Q597.8438,421.9219 598.4688,421.3438 L598.4688,424.0625 Z "/><text fill="#000000" font-family="sans-serif" font-size="12" font-style="italic" lengthAdjust="spacingAndGlyphs" textLength="60" x="642" y="415.5918">«module»</text><text fill="#000000" font-family="sans-serif" font-size="12" lengthAdjust="spacingAndGlyphs" textLength="125" x="609.5" y="429.5605">runtime_contract.py</text><line style="stroke: #A80036; stroke-width: 1.5;" x1="581.5" x2="736.5" y1="437.3906" y2="437.3906"/><line style="stroke: #A80036; stroke-width: 1.5;" x1="581.5" x2="736.5" y1="445.3906" y2="445.3906"/><!--MD5=[89c89ccdaecd3303be5316da5db940aa]
entity methods--><polygon fill="#FEFECE" filter="url(#f11iyw87htf7mn)" points="365.5,522.9531,440.5,522.9531,447.5,545.25,464.5,545.25,464.5,562.25,365.5,562.25,365.5,522.9531" style="stroke: #000000; stroke-width: 1.5;"/><line style="stroke: #000000; stroke-width: 1.5;" x1="365.5" x2="447.5" y1="545.25" y2="545.25"/><text fill="#000000" font-family="sans-serif" font-size="14" font-weight="bold" lengthAdjust="spacingAndGlyphs" textLength="69" x="369.5" y="538.9482">methods</text><!--MD5=[3f9542fbfb309afc7aa246dffcad0185]
entity engines--><polygon fill="#FEFECE" filter="url(#f11iyw87htf7mn)" points="499.5,522.9531,568.5,522.9531,575.5,545.25,592.5,545.25,592.5,562.25,499.5,562.25,499.5,522.9531" style="stroke: #000000; stroke-width: 1.5;"/><line style="stroke: #000000; stroke-width: 1.5;" x1="499.5" x2="575.5" y1="545.25" y2="545.25"/><text fill="#000000" font-family="sans-serif" font-size="14" font-weight="bold" lengthAdjust="spacingAndGlyphs" textLength="63" x="503.5" y="538.9482">engines</text><!--MD5=[219bf50091acddf91eb3a8ef287286a0]
entity formulations--><polygon fill="#FEFECE" filter="url(#f11iyw87htf7mn)" points="286.5,622.9531,391.5,622.9531,398.5,645.25,415.5,645.25,415.5,662.25,286.5,662.25,286.5,622.9531" style="stroke: #000000; stroke-width: 1.5;"/><line style="stroke: #000000; stroke-width: 1.5;" x1="286.5" x2="398.5" y1="645.25" y2="645.25"/><text fill="#000000" font-family="sans-serif" font-size="14" font-weight="bold" lengthAdjust="spacingAndGlyphs" textLength="99" x="290.5" y="638.9482">formulations</text><!--MD5=[a9e96a67945d65af64cae7ca5e1fe60c]
entity discretization--><polygon fill="#FEFECE" filter="url(#f11iyw87htf7mn)" points="450.5,622.9531,563.5,622.9531,570.5,645.25,587.5,645.25,587.5,662.25,450.5,662.25,450.5,622.9531" style="stroke: #000000; stroke-width: 1.5;"/><line style="stroke: #000000; stroke-width: 1.5;" x1="450.5" x2="570.5" y1="645.25" y2="645.25"/><text fill="#000000" font-family="sans-serif" font-size="14" font-weight="bold" lengthAdjust="spacingAndGlyphs" textLength="107" x="454.5" y="638.9482">discretization</text><!--MD5=[38ab66cc88056e5a189aa0a7986f230f]
class LocalRuntime--><rect fill="#FEFECE" filter="url(#f11iyw87htf7mn)" height="53.9375" id="LocalRuntime" style="stroke: #A80036; stroke-width: 1.5;" width="133" x="352.5" y="79.9531"/><ellipse cx="367.5" cy="98.9219" fill="#ADD1B2" rx="11" ry="11" style="stroke: #A80036; stroke-width: 1.0;"/><path d="M370.4688,104.5625 Q369.8906,104.8594 369.25,105 Q368.6094,105.1563 367.9063,105.1563 Q365.4063,105.1563 364.0781,103.5156 Q362.7656,101.8594 362.7656,98.7344 Q362.7656,95.6094 364.0781,93.9531 Q365.4063,92.2969 367.9063,92.2969 Q368.6094,92.2969 369.25,92.4531 Q369.9063,92.6094 370.4688,92.9063 L370.4688,95.625 Q369.8438,95.0469 369.25,94.7813 Q368.6563,94.5 368.0313,94.5 Q366.6875,94.5 366,95.5781 Q365.3125,96.6406 365.3125,98.7344 Q365.3125,100.8281 366,101.9063 Q366.6875,102.9688 368.0313,102.9688 Q368.6563,102.9688 369.25,102.7031 Q369.8438,102.4219 370.4688,101.8438 L370.4688,104.5625 Z "/><text fill="#000000" font-family="sans-serif" font-size="12" font-style="italic" lengthAdjust="spacingAndGlyphs" textLength="60" x="402" y="96.0918">«module»</text><text fill="#000000" font-family="sans-serif" font-size="12" lengthAdjust="spacingAndGlyphs" textLength="101" x="381.5" y="110.0605">local_runtime.py</text><line style="stroke: #A80036; stroke-width: 1.5;" x1="353.5" x2="484.5" y1="117.8906" y2="117.8906"/><line style="stroke: #A80036; stroke-width: 1.5;" x1="353.5" x2="484.5" y1="125.8906" y2="125.8906"/><!--MD5=[17294d43db5835b4c193a9c95ee7a5b1]
class ScipyRuntime--><rect fill="#FEFECE" filter="url(#f11iyw87htf7mn)" height="53.9375" id="ScipyRuntime" style="stroke: #A80036; stroke-width: 1.5;" width="135" x="520.5" y="79.9531"/><ellipse cx="535.5" cy="98.9219" fill="#ADD1B2" rx="11" ry="11" style="stroke: #A80036; stroke-width: 1.0;"/><path d="M538.4688,104.5625 Q537.8906,104.8594 537.25,105 Q536.6094,105.1563 535.9063,105.1563 Q533.4063,105.1563 532.0781,103.5156 Q530.7656,101.8594 530.7656,98.7344 Q530.7656,95.6094 532.0781,93.9531 Q533.4063,92.2969 535.9063,92.2969 Q536.6094,92.2969 537.25,92.4531 Q537.9063,92.6094 538.4688,92.9063 L538.4688,95.625 Q537.8438,95.0469 537.25,94.7813 Q536.6563,94.5 536.0313,94.5 Q534.6875,94.5 534,95.5781 Q533.3125,96.6406 533.3125,98.7344 Q533.3125,100.8281 534,101.9063 Q534.6875,102.9688 536.0313,102.9688 Q536.6563,102.9688 537.25,102.7031 Q537.8438,102.4219 538.4688,101.8438 L538.4688,104.5625 Z "/><text fill="#000000" font-family="sans-serif" font-size="12" font-style="italic" lengthAdjust="spacingAndGlyphs" textLength="60" x="571" y="96.0918">«module»</text><text fill="#000000" font-family="sans-serif" font-size="12" lengthAdjust="spacingAndGlyphs" textLength="103" x="549.5" y="110.0605">scipy_runtime.py</text><line style="stroke: #A80036; stroke-width: 1.5;" x1="521.5" x2="654.5" y1="117.8906" y2="117.8906"/><line style="stroke: #A80036; stroke-width: 1.5;" x1="521.5" x2="654.5" y1="125.8906" y2="125.8906"/><!--MD5=[fc68526fa3a135b49c039bd50ca06466]
class SparseRuntime--><rect fill="#FEFECE" filter="url(#f11iyw87htf7mn)" height="53.9375" id="SparseRuntime" style="stroke: #A80036; stroke-width: 1.5;" width="184" x="691" y="79.9531"/><ellipse cx="706" cy="98.9219" fill="#ADD1B2" rx="11" ry="11" style="stroke: #A80036; stroke-width: 1.0;"/><path d="M708.9688,104.5625 Q708.3906,104.8594 707.75,105 Q707.1094,105.1563 706.4063,105.1563 Q703.9063,105.1563 702.5781,103.5156 Q701.2656,101.8594 701.2656,98.7344 Q701.2656,95.6094 702.5781,93.9531 Q703.9063,92.2969 706.4063,92.2969 Q707.1094,92.2969 707.75,92.4531 Q708.4063,92.6094 708.9688,92.9063 L708.9688,95.625 Q708.3438,95.0469 707.75,94.7813 Q707.1563,94.5 706.5313,94.5 Q705.1875,94.5 704.5,95.5781 Q703.8125,96.6406 703.8125,98.7344 Q703.8125,100.8281 704.5,101.9063 Q705.1875,102.9688 706.5313,102.9688 Q707.1563,102.9688 707.75,102.7031 Q708.3438,102.4219 708.9688,101.8438 L708.9688,104.5625 Z "/><text fill="#000000" font-family="sans-serif" font-size="12" font-style="italic" lengthAdjust="spacingAndGlyphs" textLength="60" x="766" y="96.0918">«module»</text><text fill="#000000" font-family="sans-serif" font-size="12" lengthAdjust="spacingAndGlyphs" textLength="152" x="720" y="110.0605">scipy_sparse_runtime.py</text><line style="stroke: #A80036; stroke-width: 1.5;" x1="692" x2="874" y1="117.8906" y2="117.8906"/><line style="stroke: #A80036; stroke-width: 1.5;" x1="692" x2="874" y1="125.8906" y2="125.8906"/><!--MD5=[c2078e4442fca3c34479b36dcae1929e]
class PetscPartitionRuntime--><rect fill="#FEFECE" filter="url(#f11iyw87htf7mn)" height="53.9375" id="PetscPartitionRuntime" style="stroke: #A80036; stroke-width: 1.5;" width="198" x="910" y="79.9531"/><ellipse cx="925" cy="98.9219" fill="#ADD1B2" rx="11" ry="11" style="stroke: #A80036; stroke-width: 1.0;"/><path d="M927.9688,104.5625 Q927.3906,104.8594 926.75,105 Q926.1094,105.1563 925.4063,105.1563 Q922.9063,105.1563 921.5781,103.5156 Q920.2656,101.8594 920.2656,98.7344 Q920.2656,95.6094 921.5781,93.9531 Q922.9063,92.2969 925.4063,92.2969 Q926.1094,92.2969 926.75,92.4531 Q927.4063,92.6094 927.9688,92.9063 L927.9688,95.625 Q927.3438,95.0469 926.75,94.7813 Q926.1563,94.5 925.5313,94.5 Q924.1875,94.5 923.5,95.5781 Q922.8125,96.6406 922.8125,98.7344 Q922.8125,100.8281 923.5,101.9063 Q924.1875,102.9688 925.5313,102.9688 Q926.1563,102.9688 926.75,102.7031 Q927.3438,102.4219 927.9688,101.8438 L927.9688,104.5625 Z "/><text fill="#000000" font-family="sans-serif" font-size="12" font-style="italic" lengthAdjust="spacingAndGlyphs" textLength="60" x="992" y="96.0918">«module»</text><text fill="#000000" font-family="sans-serif" font-size="12" lengthAdjust="spacingAndGlyphs" textLength="166" x="939" y="110.0605">petsc_partition_runtime.py</text><line style="stroke: #A80036; stroke-width: 1.5;" x1="911" x2="1107" y1="117.8906" y2="117.8906"/><line style="stroke: #A80036; stroke-width: 1.5;" x1="911" x2="1107" y1="125.8906" y2="125.8906"/><!--MD5=[13d1cbf69aa5aac91ff706c687abf6d5]
class PetscRuntime--><rect fill="#FEFECE" filter="url(#f11iyw87htf7mn)" height="53.9375" id="PetscRuntime" style="stroke: #A80036; stroke-width: 1.5;" width="139" x="1143.5" y="79.9531"/><ellipse cx="1158.5" cy="98.9219" fill="#ADD1B2" rx="11" ry="11" style="stroke: #A80036; stroke-width: 1.0;"/><path d="M1161.4688,104.5625 Q1160.8906,104.8594 1160.25,105 Q1159.6094,105.1563 1158.9063,105.1563 Q1156.4063,105.1563 1155.0781,103.5156 Q1153.7656,101.8594 1153.7656,98.7344 Q1153.7656,95.6094 1155.0781,93.9531 Q1156.4063,92.2969 1158.9063,92.2969 Q1159.6094,92.2969 1160.25,92.4531 Q1160.9063,92.6094 1161.4688,92.9063 L1161.4688,95.625 Q1160.8438,95.0469 1160.25,94.7813 Q1159.6563,94.5 1159.0313,94.5 Q1157.6875,94.5 1157,95.5781 Q1156.3125,96.6406 1156.3125,98.7344 Q1156.3125,100.8281 1157,101.9063 Q1157.6875,102.9688 1159.0313,102.9688 Q1159.6563,102.9688 1160.25,102.7031 Q1160.8438,102.4219 1161.4688,101.8438 L1161.4688,104.5625 Z "/><text fill="#000000" font-family="sans-serif" font-size="12" font-style="italic" lengthAdjust="spacingAndGlyphs" textLength="60" x="1196" y="96.0918">«module»</text><text fill="#000000" font-family="sans-serif" font-size="12" lengthAdjust="spacingAndGlyphs" textLength="107" x="1172.5" y="110.0605">petsc_runtime.py</text><line style="stroke: #A80036; stroke-width: 1.5;" x1="1144.5" x2="1281.5" y1="117.8906" y2="117.8906"/><line style="stroke: #A80036; stroke-width: 1.5;" x1="1144.5" x2="1281.5" y1="125.8906" y2="125.8906"/><path d="M785.5,212.9531 L785.5,313.75 L1026.5,313.75 L1026.5,222.9531 L1016.5,212.9531 L785.5,212.9531 " fill="#FBFB77" filter="url(#f11iyw87htf7mn)" style="stroke: #A80036; stroke-width: 1.0;"/><path d="M1016.5,212.9531 L1016.5,222.9531 L1026.5,222.9531 L1016.5,212.9531 " fill="#FBFB77" style="stroke: #A80036; stroke-width: 1.0;"/><text fill="#000000" font-family="sans-serif" font-size="13" lengthAdjust="spacingAndGlyphs" textLength="117" x="791.5" y="230.02">Main orchestrator.</text><text fill="#000000" font-family="sans-serif" font-size="13" lengthAdjust="spacingAndGlyphs" textLength="220" x="791.5" y="245.1528">Still the largest file in the package.</text><text fill="#000000" font-family="sans-serif" font-size="13" lengthAdjust="spacingAndGlyphs" textLength="164" x="791.5" y="260.2856">Next simplification target:</text><text fill="#000000" font-family="sans-serif" font-size="13" lengthAdjust="spacingAndGlyphs" textLength="151" x="791.5" y="275.4185">split payload resolution,</text><text fill="#000000" font-family="sans-serif" font-size="13" lengthAdjust="spacingAndGlyphs" textLength="146" x="791.5" y="290.5513">transient orchestration</text><text fill="#000000" font-family="sans-serif" font-size="13" lengthAdjust="spacingAndGlyphs" textLength="138" x="791.5" y="305.6841">and export assembly.</text><path d="M782,390.9531 L782,461.4844 A0,0 0 0 0 782,461.4844 L1004,461.4844 A0,0 0 0 0 1004,461.4844 L1004,400.9531 L994,390.9531 L854.6,390.9531 L728.09,290.6831 L846.6,390.9531 L782,390.9531 A0,0 0 0 0 782,390.9531 " fill="#FBFB77" filter="url(#f11iyw87htf7mn)" style="stroke: #A80036; stroke-width: 1.0;"/><path d="M994,390.9531 L994,400.9531 L1004,400.9531 L994,390.9531 " fill="#FBFB77" style="stroke: #A80036; stroke-width: 1.0;"/><text fill="#000000" font-family="sans-serif" font-size="13" lengthAdjust="spacingAndGlyphs" textLength="87" x="788" y="408.02">Physical core.</text><text fill="#000000" font-family="sans-serif" font-size="13" lengthAdjust="spacingAndGlyphs" textLength="201" x="788" y="423.1528">Should keep only one canonical</text><text fill="#000000" font-family="sans-serif" font-size="13" lengthAdjust="spacingAndGlyphs" textLength="189" x="788" y="438.2856">boundary language internally:</text><text fill="#000000" font-family="sans-serif" font-size="13" lengthAdjust="spacingAndGlyphs" textLength="167" x="788" y="453.4185">prescribed boundary cells.</text><!--MD5=[41bd7209c266e43d2125e00fdba5b163]
link Flow to Boussinesq--><path d="M264.38,131.1131 C263.81,146.0331 263.95,165.7731 267,182.9531 C270.13,200.5531 276.65,219.4631 282.61,234.4231 " fill="none" id="Flow-&gt;Boussinesq" style="stroke: #A80036; stroke-width: 1.0;"/><polygon fill="#A80036" points="284.61,239.3431,284.9448,229.5,282.7358,234.7077,277.5281,232.4987,284.61,239.3431" style="stroke: #A80036; stroke-width: 1.0;"/><text fill="#000000" font-family="sans-serif" font-size="13" lengthAdjust="spacingAndGlyphs" textLength="138" x="268" y="179.02">hydrological definition</text><!--MD5=[149a11499aa4a7b7d8b0563eaf710810]
link Boussinesq to BoussinesqMesh--><path d="M242.65,269.8531 C196.43,277.7031 131.61,296.9231 100,343.9531 C89.59,359.4431 91.71,380.5031 96.24,397.3331 " fill="none" id="Boussinesq-&gt;BoussinesqMesh" style="stroke: #A80036; stroke-width: 1.0;"/><polygon fill="#A80036" points="97.71,402.4131,99.0568,392.6568,96.3232,397.6093,91.3707,394.8757,97.71,402.4131" style="stroke: #A80036; stroke-width: 1.0;"/><text fill="#000000" font-family="sans-serif" font-size="13" lengthAdjust="spacingAndGlyphs" textLength="99" x="101" y="357.02">builds and uses</text><!--MD5=[942600d54dd2aa96606e90f1825e0ad5]
link Boussinesq to RuntimeSelection--><path d="M318.06,287.7731 C337.73,307.5131 366.89,336.4331 393,360.9531 C405.42,372.6131 419.3,385.1731 431.55,396.0731 " fill="none" id="Boussinesq-&gt;RuntimeSelection" style="stroke: #A80036; stroke-width: 1.0;"/><polygon fill="#A80036" points="435.29,399.4031,431.2399,390.4255,431.5601,396.0733,425.9123,396.3934,435.29,399.4031" style="stroke: #A80036; stroke-width: 1.0;"/><text fill="#000000" font-family="sans-serif" font-size="13" lengthAdjust="spacingAndGlyphs" textLength="169" x="394" y="357.02">resolves method + engine</text><!--MD5=[b8b1fd598be72ced3d89597b43aa3012]
link RuntimeSelection to methods--><path d="M453.53,453.6031 C444.97,473.1231 433.39,499.5331 425.16,518.2931 " fill="none" id="RuntimeSelection-&gt;methods" style="stroke: #A80036; stroke-width: 1.0;"/><polygon fill="#A80036" points="423.14,522.8831,430.4218,516.2517,425.1508,518.3053,423.0972,513.0344,423.14,522.8831" style="stroke: #A80036; stroke-width: 1.0;"/><!--MD5=[5200582d43d4aabc41083c764c3b55f7]
link RuntimeSelection to engines--><path d="M483.58,453.6031 C497.57,473.2831 516.53,499.9831 529.88,518.7631 " fill="none" id="RuntimeSelection-&gt;engines" style="stroke: #A80036; stroke-width: 1.0;"/><polygon fill="#A80036" points="532.81,522.8831,530.8626,513.2287,529.916,518.8058,524.3389,517.8592,532.81,522.8831" style="stroke: #A80036; stroke-width: 1.0;"/><!--MD5=[54c1af8a2e7e4c956264db5b13283964]
link methods to formulations--><path d="M402.66,562.3531 C392.15,578.4531 377.01,601.6331 365.83,618.7331 " fill="none" id="methods-&gt;formulations" style="stroke: #A80036; stroke-width: 1.0;"/><polygon fill="#A80036" points="363.08,622.9431,371.3585,617.6078,365.8205,618.761,364.6672,613.223,363.08,622.9431" style="stroke: #A80036; stroke-width: 1.0;"/><!--MD5=[5f2620f4e604883cf8be31b099a54f1c]
link methods to discretization--><path d="M435.05,562.3531 C452.28,578.5831 477.16,602.0231 495.35,619.1731 " fill="none" id="methods-&gt;discretization" style="stroke: #A80036; stroke-width: 1.0;"/><polygon fill="#A80036" points="499.36,622.9431,495.5477,613.862,495.719,619.5163,490.0647,619.6876,499.36,622.9431" style="stroke: #A80036; stroke-width: 1.0;"/><!--MD5=[b7721886eabc77ca807b14d30d15db38]
link Boussinesq to RuntimeContract--><path d="M347.23,272.5031 C404.25,282.8831 496.9,304.4731 568,343.9531 C592.13,357.3531 615.25,378.1931 632.14,395.4431 " fill="none" id="Boussinesq-&gt;RuntimeContract" style="stroke: #A80036; stroke-width: 1.0;"/><polygon fill="#A80036" points="635.87,399.2931,632.4832,390.0449,632.3919,395.701,626.7358,395.6098,635.87,399.2931" style="stroke: #A80036; stroke-width: 1.0;"/><text fill="#000000" font-family="sans-serif" font-size="13" lengthAdjust="spacingAndGlyphs" textLength="141" x="594" y="357.02">packages solve inputs</text><!--MD5=[3a3746ea0db0654f50023eb95a4cb56b]
link LocalRuntime to AssemblyModule--><path d="M430.59,134.0731 C438.93,150.1631 451.58,170.1131 468,182.9531 C517.64,221.7831 587.61,242.4231 636.91,252.8431 " fill="none" id="LocalRuntime-&gt;AssemblyModule" style="stroke: #A80036; stroke-width: 1.0; stroke-dasharray: 7.0,7.0;"/><polygon fill="#A80036" points="641.91,253.8831,633.9076,248.1419,637.0138,252.8696,632.286,255.9758,641.91,253.8831" style="stroke: #A80036; stroke-width: 1.0;"/><text fill="#000000" font-family="sans-serif" font-size="13" lengthAdjust="spacingAndGlyphs" textLength="123" x="469" y="179.02">assembles residual</text><!--MD5=[63c4a54b4e7fe7e8ccfa10af231287e5]
link ScipyRuntime to AssemblyModule--><path d="M591.63,134.0431 C594.6,149.1731 599.86,168.1031 609,182.9531 C620.76,202.0731 638.42,219.4031 654.76,232.9631 " fill="none" id="ScipyRuntime-&gt;AssemblyModule" style="stroke: #A80036; stroke-width: 1.0; stroke-dasharray: 7.0,7.0;"/><polygon fill="#A80036" points="658.88,236.3331,654.4526,227.5355,655.0121,233.1646,649.383,233.7241,658.88,236.3331" style="stroke: #A80036; stroke-width: 1.0;"/><text fill="#000000" font-family="sans-serif" font-size="13" lengthAdjust="spacingAndGlyphs" textLength="123" x="610" y="179.02">assembles residual</text><!--MD5=[20a912440aa61af9465959a3a1447883]
link SparseRuntime to AssemblyModule--><path d="M768.92,134.0731 C761.08,148.5231 751.09,166.7831 742,182.9531 C732.86,199.2031 722.48,217.1831 713.89,231.9331 " fill="none" id="SparseRuntime-&gt;AssemblyModule" style="stroke: #A80036; stroke-width: 1.0; stroke-dasharray: 7.0,7.0;"/><polygon fill="#A80036" points="711.28,236.4031,719.2676,230.6413,713.7976,232.0832,712.3557,226.6132,711.28,236.4031" style="stroke: #A80036; stroke-width: 1.0;"/><text fill="#000000" font-family="sans-serif" font-size="13" lengthAdjust="spacingAndGlyphs" textLength="123" x="752" y="179.02">assembles residual</text><!--MD5=[f0e91868236a4d413752a71a76e22701]
link PetscPartitionRuntime to AssemblyModule--><path d="M975.23,133.9831 C951.18,151.0231 917.32,172.0831 884,182.9531 C834.79,199.0131 815.11,172.0031 768,193.4531 C748.99,202.1131 731.9,217.9331 719.15,232.2431 " fill="none" id="PetscPartitionRuntime-&gt;AssemblyModule" style="stroke: #A80036; stroke-width: 1.0; stroke-dasharray: 7.0,7.0;"/><polygon fill="#A80036" points="715.67,236.2331,724.5979,232.0748,718.9544,232.4632,718.566,226.8197,715.67,236.2331" style="stroke: #A80036; stroke-width: 1.0;"/><text fill="#000000" font-family="sans-serif" font-size="13" lengthAdjust="spacingAndGlyphs" textLength="123" x="921" y="179.02">assembles residual</text><!--MD5=[84f2200d08f8c37e1f6a28c7a992182e]
link PetscRuntime to AssemblyModule--><path d="M1172.54,134.0231 C1141.32,152.3331 1096.28,174.9231 1053,182.9531 C1021.84,188.7331 797.18,181.1031 768,193.4531 C748.62,201.6631 731.41,217.6331 718.68,232.1431 " fill="none" id="PetscRuntime-&gt;AssemblyModule" style="stroke: #A80036; stroke-width: 1.0; stroke-dasharray: 7.0,7.0;"/><polygon fill="#A80036" points="715.21,236.1931,724.1041,231.963,718.464,232.3968,718.0301,226.7567,715.21,236.1931" style="stroke: #A80036; stroke-width: 1.0;"/><text fill="#000000" font-family="sans-serif" font-size="13" lengthAdjust="spacingAndGlyphs" textLength="123" x="1109" y="179.02">assembles residual</text><!--MD5=[b0e1a2c1c8d28836cd57851e3627914a]
link Boussinesq to BoussinesqState--><path d="M259.32,287.4931 C241.18,301.4031 220.92,320.9031 211,343.9531 C202.01,364.8531 217.49,384.4431 236.05,399.1731 " fill="none" id="Boussinesq-&gt;BoussinesqState" style="stroke: #A80036; stroke-width: 1.0;"/><polygon fill="#A80036" points="240.31,402.4331,235.5987,393.7842,236.341,399.3922,230.7331,400.1346,240.31,402.4331" style="stroke: #A80036; stroke-width: 1.0;"/><text fill="#000000" font-family="sans-serif" font-size="13" lengthAdjust="spacingAndGlyphs" textLength="140" x="212" y="357.02">stores accepted state</text><!--MD5=[68aa3a5b891433fb6dad0d72c6aa012a]
link Boussinesq to GMN35--><path d="M344.78,239.3931 C428.75,202.0331 603.55,138.0531 748.5,175.7031 C777.89,183.3331 807.62,197.7831 833.21,212.7831 " fill="none" id="Boussinesq-GMN35" style="stroke: #A80036; stroke-width: 1.0; stroke-dasharray: 7.0,7.0;"/><!--MD5=[61412f050587a5f8359ec3b3c17b6a3a]
@startuml
allowmixing
title Boussinesq Solver - Package Context

package "process" {
  class Flow
}

package "hydromodpy.solver.boussinesq" {
  class Boussinesq
  class BoussinesqMesh
  class BoussinesqState
  class "assembly.py" as AssemblyModule <<module>>
  class "runtime_selection.py" as RuntimeSelection <<module>>
  class "runtime_contract.py" as RuntimeContract <<module>>
  package methods
  package engines
  package formulations
  package discretization
}

package "runtime engines" {
  class "local_runtime.py" as LocalRuntime <<module>>
  class "scipy_runtime.py" as ScipyRuntime <<module>>
  class "scipy_sparse_runtime.py" as SparseRuntime <<module>>
  class "petsc_partition_runtime.py" as PetscPartitionRuntime <<module>>
  class "petsc_runtime.py" as PetscRuntime <<module>>
}

Flow - -> Boussinesq : hydrological definition
Boussinesq - -> BoussinesqMesh : builds and uses
Boussinesq - -> RuntimeSelection : resolves method + engine
RuntimeSelection - -> methods
RuntimeSelection - -> engines
methods - -> formulations
methods - -> discretization
Boussinesq - -> RuntimeContract : packages solve inputs
LocalRuntime ..> AssemblyModule : assembles residual
ScipyRuntime ..> AssemblyModule : assembles residual
SparseRuntime ..> AssemblyModule : assembles residual
PetscPartitionRuntime ..> AssemblyModule : assembles residual
PetscRuntime ..> AssemblyModule : assembles residual
Boussinesq - -> BoussinesqState : stores accepted state

note right of Boussinesq
Main orchestrator.
Still the largest file in the package.
Next simplification target:
split payload resolution,
transient orchestration
and export assembly.
end note

note bottom of AssemblyModule
Physical core.
Should keep only one canonical
boundary language internally:
prescribed boundary cells.
end note

@enduml

PlantUML version 1.2020.02(Sun Mar 01 10:22:07 UTC 2020)
(GPL source distribution)
Java Runtime: OpenJDK Runtime Environment
JVM: OpenJDK 64-Bit Server VM
Java Version: 17.0.20.1+1
Operating System: Linux
Default Encoding: UTF-8
Language: en
Country: null
--></g></svg>